<?xml version="1.0" encoding="UTF-8" standalone="no"?>
<!DOCTYPE svg PUBLIC "-//W3C//DTD SVG 1.1//EN"
 "http://www.w3.org/Graphics/SVG/1.1/DTD/svg11.dtd">
<!-- Generated by graphviz version 2.36.0 (20140111.2315)
 -->
<!-- Title: AstropyCoordinateTransformGraph Pages: 1 -->
<svg width="1304pt" height="596pt"
 viewBox="0.00 0.00 1304.00 596.00" xmlns="http://www.w3.org/2000/svg" xmlns:xlink="http://www.w3.org/1999/xlink">
<g id="graph0" class="graph" transform="scale(1 1) rotate(0) translate(4 592)">
<title>AstropyCoordinateTransformGraph</title>
<polygon fill="white" stroke="none" points="-4,4 -4,-592 1300,-592 1300,4 -4,4"/>
<!-- FK5 -->
<g id="node1" class="node"><title>FK5</title>
<ellipse fill="none" stroke="black" cx="859" cy="-567" rx="27" ry="21.4286"/>
<text text-anchor="middle" x="859" y="-570" font-family="Helvetica Neue, Helvetica, Arial, sans-serif" font-size="10.00">FK5</text>
<text text-anchor="middle" x="859" y="-559" font-family="Helvetica Neue, Helvetica, Arial, sans-serif" font-size="10.00">`fk5`</text>
</g>
<!-- FK5&#45;&gt;FK5 -->
<g id="edge1" class="edge"><title>FK5&#45;&gt;FK5</title>
<path fill="none" stroke="#1b9e77" d="M879.83,-580.711C892.281,-583.758 904,-579.188 904,-567 904,-558.24 897.946,-553.416 889.918,-552.526"/>
<polygon fill="#1b9e77" stroke="#1b9e77" points="889.537,-549.045 879.83,-553.289 890.066,-556.025 889.537,-549.045"/>
</g>
<!-- ICRS -->
<g id="node2" class="node"><title>ICRS</title>
<ellipse fill="none" stroke="black" cx="422" cy="-489" rx="28.4872" ry="21.4286"/>
<text text-anchor="middle" x="422" y="-492" font-family="Helvetica Neue, Helvetica, Arial, sans-serif" font-size="10.00">ICRS</text>
<text text-anchor="middle" x="422" y="-481" font-family="Helvetica Neue, Helvetica, Arial, sans-serif" font-size="10.00">`icrs`</text>
</g>
<!-- FK5&#45;&gt;ICRS -->
<g id="edge2" class="edge"><title>FK5&#45;&gt;ICRS</title>
<path fill="none" stroke="#1b9e77" d="M832.57,-561.968C757.855,-549.73 545.754,-512.896 459.269,-497.205"/>
<polygon fill="#1b9e77" stroke="#1b9e77" points="459.828,-493.749 449.362,-495.399 458.572,-500.636 459.828,-493.749"/>
</g>
<!-- FK4NoETerms -->
<g id="node3" class="node"><title>FK4NoETerms</title>
<ellipse fill="none" stroke="black" cx="954" cy="-489" rx="57.4743" ry="21.4286"/>
<text text-anchor="middle" x="954" y="-492" font-family="Helvetica Neue, Helvetica, Arial, sans-serif" font-size="10.00">FK4NoETerms</text>
<text text-anchor="middle" x="954" y="-481" font-family="Helvetica Neue, Helvetica, Arial, sans-serif" font-size="10.00">`fk4noeterms`</text>
</g>
<!-- FK5&#45;&gt;FK4NoETerms -->
<g id="edge3" class="edge"><title>FK5&#45;&gt;FK4NoETerms</title>
<path fill="none" stroke="#1b9e77" d="M874.364,-549.133C886.234,-538.728 902.919,-525.223 918.008,-513.747"/>
<polygon fill="#1b9e77" stroke="#1b9e77" points="920.287,-516.413 926.186,-507.612 916.086,-510.813 920.287,-516.413"/>
</g>
<!-- Galactic -->
<g id="node4" class="node"><title>Galactic</title>
<ellipse fill="none" stroke="black" cx="912" cy="-411" rx="39.3965" ry="21.4286"/>
<text text-anchor="middle" x="912" y="-414" font-family="Helvetica Neue, Helvetica, Arial, sans-serif" font-size="10.00">Galactic</text>
<text text-anchor="middle" x="912" y="-403" font-family="Helvetica Neue, Helvetica, Arial, sans-serif" font-size="10.00">`galactic`</text>
</g>
<!-- FK5&#45;&gt;Galactic -->
<g id="edge4" class="edge"><title>FK5&#45;&gt;Galactic</title>
<path fill="none" stroke="#1b9e77" d="M857.025,-545.84C859.906,-525.839 868.377,-494.438 878,-468 881.46,-458.495 885.794,-448.333 890.338,-439.31"/>
<polygon fill="#1b9e77" stroke="#1b9e77" points="893.478,-440.862 895.121,-430.395 887.309,-437.553 893.478,-440.862"/>
</g>
<!-- ICRS&#45;&gt;FK5 -->
<g id="edge13" class="edge"><title>ICRS&#45;&gt;FK5</title>
<path fill="none" stroke="#1b9e77" d="M449.799,-494.257C526.06,-506.773 737.754,-543.544 822.941,-559.015"/>
<polygon fill="#1b9e77" stroke="#1b9e77" points="822.455,-562.484 832.921,-560.836 823.711,-555.597 822.455,-562.484"/>
</g>
<!-- Galactocentric -->
<g id="node6" class="node"><title>Galactocentric</title>
<ellipse fill="none" stroke="black" cx="146" cy="-411" rx="58.5343" ry="21.4286"/>
<text text-anchor="middle" x="146" y="-414" font-family="Helvetica Neue, Helvetica, Arial, sans-serif" font-size="10.00">Galactocentric</text>
<text text-anchor="middle" x="146" y="-403" font-family="Helvetica Neue, Helvetica, Arial, sans-serif" font-size="10.00">`galactocentric`</text>
</g>
<!-- ICRS&#45;&gt;Galactocentric -->
<g id="edge11" class="edge"><title>ICRS&#45;&gt;Galactocentric</title>
<path fill="none" stroke="#555555" d="M394.658,-482.28C353.127,-472.326 272.674,-451.059 205,-432 202.017,-431.16 198.962,-430.291 195.888,-429.408"/>
<polygon fill="#555555" stroke="#555555" points="196.644,-425.983 186.065,-426.555 194.691,-432.705 196.644,-425.983"/>
</g>
<!-- LSR -->
<g id="node7" class="node"><title>LSR</title>
<ellipse fill="none" stroke="black" cx="250" cy="-411" rx="27" ry="21.4286"/>
<text text-anchor="middle" x="250" y="-414" font-family="Helvetica Neue, Helvetica, Arial, sans-serif" font-size="10.00">LSR</text>
<text text-anchor="middle" x="250" y="-403" font-family="Helvetica Neue, Helvetica, Arial, sans-serif" font-size="10.00">`lsr`</text>
</g>
<!-- ICRS&#45;&gt;LSR -->
<g id="edge12" class="edge"><title>ICRS&#45;&gt;LSR</title>
<path fill="none" stroke="#555555" d="M396.161,-479.953C367.592,-469.337 321.139,-449.898 282,-432 280.825,-431.463 279.633,-430.913 278.434,-430.354"/>
<polygon fill="#555555" stroke="#555555" points="279.779,-427.117 269.248,-425.957 276.757,-433.431 279.779,-427.117"/>
</g>
<!-- CIRS -->
<g id="node8" class="node"><title>CIRS</title>
<ellipse fill="none" stroke="black" cx="380" cy="-411" rx="28.4872" ry="21.4286"/>
<text text-anchor="middle" x="380" y="-414" font-family="Helvetica Neue, Helvetica, Arial, sans-serif" font-size="10.00">CIRS</text>
<text text-anchor="middle" x="380" y="-403" font-family="Helvetica Neue, Helvetica, Arial, sans-serif" font-size="10.00">`cirs`</text>
</g>
<!-- ICRS&#45;&gt;CIRS -->
<g id="edge14" class="edge"><title>ICRS&#45;&gt;CIRS</title>
<path fill="none" stroke="#d95f02" d="M406.709,-470.754C400.98,-462.059 394.742,-451.272 389.614,-441.323"/>
<polygon fill="#d95f02" stroke="#d95f02" points="392.648,-439.563 385.091,-432.138 386.368,-442.655 392.648,-439.563"/>
</g>
<!-- GCRS -->
<g id="node9" class="node"><title>GCRS</title>
<ellipse fill="none" stroke="black" cx="186" cy="-333" rx="32.2902" ry="21.4286"/>
<text text-anchor="middle" x="186" y="-336" font-family="Helvetica Neue, Helvetica, Arial, sans-serif" font-size="10.00">GCRS</text>
<text text-anchor="middle" x="186" y="-325" font-family="Helvetica Neue, Helvetica, Arial, sans-serif" font-size="10.00">`gcrs`</text>
</g>
<!-- ICRS&#45;&gt;GCRS -->
<g id="edge15" class="edge"><title>ICRS&#45;&gt;GCRS</title>
<path fill="none" stroke="#d95f02" d="M398.457,-476.574C380.08,-465.366 354.69,-447.719 333,-432 307.809,-413.744 303.074,-406.971 277,-390 257.26,-377.152 234.396,-364.213 216.406,-354.014"/>
<polygon fill="#d95f02" stroke="#d95f02" points="217.909,-350.842 207.486,-348.945 214.451,-356.928 217.909,-350.842"/>
</g>
<!-- HCRS -->
<g id="node10" class="node"><title>HCRS</title>
<ellipse fill="none" stroke="black" cx="464" cy="-255" rx="32.2902" ry="21.4286"/>
<text text-anchor="middle" x="464" y="-258" font-family="Helvetica Neue, Helvetica, Arial, sans-serif" font-size="10.00">HCRS</text>
<text text-anchor="middle" x="464" y="-247" font-family="Helvetica Neue, Helvetica, Arial, sans-serif" font-size="10.00">`hcrs`</text>
</g>
<!-- ICRS&#45;&gt;HCRS -->
<g id="edge16" class="edge"><title>ICRS&#45;&gt;HCRS</title>
<path fill="none" stroke="#555555" d="M418.985,-467.85C420.569,-457.222 423.632,-443.944 426,-432 436.151,-380.797 445.507,-320.717 453.283,-285.65"/>
<polygon fill="#555555" stroke="#555555" points="456.763,-286.144 455.645,-275.608 449.949,-284.541 456.763,-286.144"/>
</g>
<!-- BarycentricTrueEcliptic -->
<g id="node11" class="node"><title>BarycentricTrueEcliptic</title>
<ellipse fill="none" stroke="black" cx="584" cy="-411" rx="83.1581" ry="21.4286"/>
<text text-anchor="middle" x="584" y="-414" font-family="Helvetica Neue, Helvetica, Arial, sans-serif" font-size="10.00">BarycentricTrueEcliptic</text>
<text text-anchor="middle" x="584" y="-403" font-family="Helvetica Neue, Helvetica, Arial, sans-serif" font-size="10.00">`barycentrictrueecliptic`</text>
</g>
<!-- ICRS&#45;&gt;BarycentricTrueEcliptic -->
<g id="edge17" class="edge"><title>ICRS&#45;&gt;BarycentricTrueEcliptic</title>
<path fill="none" stroke="#1b9e77" d="M443.923,-475.279C466.463,-463.917 502.126,-447.035 531.877,-433.566"/>
<polygon fill="#1b9e77" stroke="#1b9e77" points="533.621,-436.619 541.304,-429.324 530.749,-430.235 533.621,-436.619"/>
</g>
<!-- HeliocentricTrueEcliptic -->
<g id="node12" class="node"><title>HeliocentricTrueEcliptic</title>
<ellipse fill="none" stroke="black" cx="770" cy="-411" rx="84.2802" ry="21.4286"/>
<text text-anchor="middle" x="770" y="-414" font-family="Helvetica Neue, Helvetica, Arial, sans-serif" font-size="10.00">HeliocentricTrueEcliptic</text>
<text text-anchor="middle" x="770" y="-403" font-family="Helvetica Neue, Helvetica, Arial, sans-serif" font-size="10.00">`heliocentrictrueecliptic`</text>
</g>
<!-- ICRS&#45;&gt;HeliocentricTrueEcliptic -->
<g id="edge18" class="edge"><title>ICRS&#45;&gt;HeliocentricTrueEcliptic</title>
<path fill="none" stroke="#d95f02" d="M448.836,-481.256C501.212,-469.157 618.233,-443.494 695.659,-427.033"/>
<polygon fill="#d95f02" stroke="#d95f02" points="696.782,-430.373 705.838,-424.874 695.33,-423.525 696.782,-430.373"/>
</g>
<!-- FK4NoETerms&#45;&gt;FK5 -->
<g id="edge9" class="edge"><title>FK4NoETerms&#45;&gt;FK5</title>
<path fill="none" stroke="#1b9e77" d="M935.702,-509.418C922.158,-521.1 903.643,-535.892 888.12,-547.421"/>
<polygon fill="#1b9e77" stroke="#1b9e77" points="885.87,-544.729 879.854,-553.45 889.995,-550.385 885.87,-544.729"/>
</g>
<!-- FK4NoETerms&#45;&gt;FK4NoETerms -->
<g id="edge7" class="edge"><title>FK4NoETerms&#45;&gt;FK4NoETerms</title>
<path fill="none" stroke="#1b9e77" d="M996.406,-503.496C1014.05,-504.496 1029,-499.664 1029,-489 1029,-480.502 1019.5,-475.707 1006.72,-474.616"/>
<polygon fill="#1b9e77" stroke="#1b9e77" points="1006.44,-471.113 996.406,-474.504 1006.37,-478.113 1006.44,-471.113"/>
</g>
<!-- FK4NoETerms&#45;&gt;Galactic -->
<g id="edge10" class="edge"><title>FK4NoETerms&#45;&gt;Galactic</title>
<path fill="none" stroke="#1b9e77" d="M937.196,-468.428C931.912,-460.202 926.324,-450.456 921.653,-441.399"/>
<polygon fill="#1b9e77" stroke="#1b9e77" points="924.729,-439.722 917.167,-432.301 918.45,-442.818 924.729,-439.722"/>
</g>
<!-- FK4 -->
<g id="node5" class="node"><title>FK4</title>
<ellipse fill="none" stroke="black" cx="997" cy="-411" rx="27" ry="21.4286"/>
<text text-anchor="middle" x="997" y="-414" font-family="Helvetica Neue, Helvetica, Arial, sans-serif" font-size="10.00">FK4</text>
<text text-anchor="middle" x="997" y="-403" font-family="Helvetica Neue, Helvetica, Arial, sans-serif" font-size="10.00">`fk4`</text>
</g>
<!-- FK4NoETerms&#45;&gt;FK4 -->
<g id="edge8" class="edge"><title>FK4NoETerms&#45;&gt;FK4</title>
<path fill="none" stroke="#d95f02" d="M959.466,-467.633C963.937,-458.342 970.099,-447.244 976.212,-437.413"/>
<polygon fill="#d95f02" stroke="#d95f02" points="979.272,-439.126 981.763,-428.829 973.394,-435.326 979.272,-439.126"/>
</g>
<!-- Galactic&#45;&gt;FK5 -->
<g id="edge22" class="edge"><title>Galactic&#45;&gt;FK5</title>
<path fill="none" stroke="#1b9e77" d="M910.202,-432.195C906.233,-442.721 900.407,-455.894 896,-468 887.599,-491.08 880.077,-517.942 873.515,-537.7"/>
<polygon fill="#1b9e77" stroke="#1b9e77" points="870.146,-536.732 870.172,-547.327 876.759,-539.029 870.146,-536.732"/>
</g>
<!-- Galactic&#45;&gt;FK4NoETerms -->
<g id="edge23" class="edge"><title>Galactic&#45;&gt;FK4NoETerms</title>
<path fill="none" stroke="#1b9e77" d="M928.176,-430.599C933.635,-439.012 939.475,-449.157 944.328,-458.564"/>
<polygon fill="#1b9e77" stroke="#1b9e77" points="941.239,-460.214 948.802,-467.633 947.517,-457.117 941.239,-460.214"/>
</g>
<!-- GalacticLSR -->
<g id="node13" class="node"><title>GalacticLSR</title>
<ellipse fill="none" stroke="black" cx="849" cy="-333" rx="50.3685" ry="21.4286"/>
<text text-anchor="middle" x="849" y="-336" font-family="Helvetica Neue, Helvetica, Arial, sans-serif" font-size="10.00">GalacticLSR</text>
<text text-anchor="middle" x="849" y="-325" font-family="Helvetica Neue, Helvetica, Arial, sans-serif" font-size="10.00">`galacticlsr`</text>
</g>
<!-- Galactic&#45;&gt;GalacticLSR -->
<g id="edge21" class="edge"><title>Galactic&#45;&gt;GalacticLSR</title>
<path fill="none" stroke="#555555" d="M891.944,-392.754C883.412,-383.631 873.684,-372.206 865.564,-361.862"/>
<polygon fill="#555555" stroke="#555555" points="868.304,-359.683 859.451,-353.863 862.742,-363.933 868.304,-359.683"/>
</g>
<!-- Supergalactic -->
<g id="node14" class="node"><title>Supergalactic</title>
<ellipse fill="none" stroke="black" cx="974" cy="-333" rx="56.3526" ry="21.4286"/>
<text text-anchor="middle" x="974" y="-336" font-family="Helvetica Neue, Helvetica, Arial, sans-serif" font-size="10.00">Supergalactic</text>
<text text-anchor="middle" x="974" y="-325" font-family="Helvetica Neue, Helvetica, Arial, sans-serif" font-size="10.00">`supergalactic`</text>
</g>
<!-- Galactic&#45;&gt;Supergalactic -->
<g id="edge24" class="edge"><title>Galactic&#45;&gt;Supergalactic</title>
<path fill="none" stroke="#7570b3" d="M921.978,-390.428C928.631,-381.266 937.486,-370.219 946.056,-360.337"/>
<polygon fill="#7570b3" stroke="#7570b3" points="948.797,-362.521 952.82,-352.719 943.563,-357.873 948.797,-362.521"/>
</g>
<!-- FK4&#45;&gt;FK4NoETerms -->
<g id="edge6" class="edge"><title>FK4&#45;&gt;FK4NoETerms</title>
<path fill="none" stroke="#d95f02" d="M991.694,-432.035C987.61,-440.558 982.072,-450.648 976.443,-459.897"/>
<polygon fill="#d95f02" stroke="#d95f02" points="973.436,-458.103 971.062,-468.428 979.357,-461.837 973.436,-458.103"/>
</g>
<!-- FK4&#45;&gt;FK4 -->
<g id="edge5" class="edge"><title>FK4&#45;&gt;FK4</title>
<path fill="none" stroke="#d95f02" d="M1017.83,-424.711C1030.28,-427.758 1042,-423.188 1042,-411 1042,-402.24 1035.95,-397.416 1027.92,-396.526"/>
<polygon fill="#d95f02" stroke="#d95f02" points="1027.54,-393.045 1017.83,-397.289 1028.07,-400.025 1027.54,-393.045"/>
</g>
<!-- Galactocentric&#45;&gt;ICRS -->
<g id="edge19" class="edge"><title>Galactocentric&#45;&gt;ICRS</title>
<path fill="none" stroke="#555555" d="M193.517,-423.577C203.33,-426.377 213.524,-429.331 223,-432 280.122,-448.087 346.349,-465.748 386.301,-476.85"/>
<polygon fill="#555555" stroke="#555555" points="385.541,-480.272 396.114,-479.595 387.427,-473.53 385.541,-480.272"/>
</g>
<!-- LSR&#45;&gt;ICRS -->
<g id="edge20" class="edge"><title>LSR&#45;&gt;ICRS</title>
<path fill="none" stroke="#555555" d="M274.476,-420.168C282.761,-423.868 291.789,-428.245 300,-432 330.382,-445.894 365.172,-460.716 389.938,-471.618"/>
<polygon fill="#555555" stroke="#555555" points="388.677,-474.888 399.238,-475.742 391.515,-468.489 388.677,-474.888"/>
</g>
<!-- CIRS&#45;&gt;ICRS -->
<g id="edge27" class="edge"><title>CIRS&#45;&gt;ICRS</title>
<path fill="none" stroke="#d95f02" d="M395.131,-429.003C400.918,-437.761 407.241,-448.688 412.424,-458.749"/>
<polygon fill="#d95f02" stroke="#d95f02" points="409.435,-460.603 416.988,-468.032 415.716,-457.514 409.435,-460.603"/>
</g>
<!-- CIRS&#45;&gt;CIRS -->
<g id="edge28" class="edge"><title>CIRS&#45;&gt;CIRS</title>
<path fill="none" stroke="#d95f02" d="M401.77,-424.822C414.318,-427.642 426,-423.035 426,-411 426,-402.35 419.965,-397.537 411.911,-396.561"/>
<polygon fill="#d95f02" stroke="#d95f02" points="411.539,-393.077 401.77,-397.178 411.964,-400.064 411.539,-393.077"/>
</g>
<!-- CIRS&#45;&gt;GCRS -->
<g id="edge30" class="edge"><title>CIRS&#45;&gt;GCRS</title>
<path fill="none" stroke="#d95f02" d="M354.322,-401.505C345.805,-397.822 336.51,-393.551 328,-390 292.222,-375.073 250.905,-359.888 221.974,-349.104"/>
<polygon fill="#d95f02" stroke="#d95f02" points="222.879,-345.705 212.286,-345.48 220.426,-352.262 222.879,-345.705"/>
</g>
<!-- AltAz -->
<g id="node15" class="node"><title>AltAz</title>
<ellipse fill="none" stroke="black" cx="286" cy="-333" rx="31.1693" ry="21.4286"/>
<text text-anchor="middle" x="286" y="-336" font-family="Helvetica Neue, Helvetica, Arial, sans-serif" font-size="10.00">AltAz</text>
<text text-anchor="middle" x="286" y="-325" font-family="Helvetica Neue, Helvetica, Arial, sans-serif" font-size="10.00">`altaz`</text>
</g>
<!-- CIRS&#45;&gt;AltAz -->
<g id="edge29" class="edge"><title>CIRS&#45;&gt;AltAz</title>
<path fill="none" stroke="#d95f02" d="M358.36,-396.762C343.711,-386.14 324.564,-370.947 309.559,-358.17"/>
<polygon fill="#d95f02" stroke="#d95f02" points="311.553,-355.267 301.704,-351.364 306.97,-360.558 311.553,-355.267"/>
</g>
<!-- ITRS -->
<g id="node16" class="node"><title>ITRS</title>
<ellipse fill="none" stroke="black" cx="381" cy="-333" rx="27.9291" ry="21.4286"/>
<text text-anchor="middle" x="381" y="-336" font-family="Helvetica Neue, Helvetica, Arial, sans-serif" font-size="10.00">ITRS</text>
<text text-anchor="middle" x="381" y="-325" font-family="Helvetica Neue, Helvetica, Arial, sans-serif" font-size="10.00">`itrs`</text>
</g>
<!-- CIRS&#45;&gt;ITRS -->
<g id="edge31" class="edge"><title>CIRS&#45;&gt;ITRS</title>
<path fill="none" stroke="#d95f02" d="M374.239,-390.032C373.652,-382.09 373.577,-372.781 373.987,-364.056"/>
<polygon fill="#d95f02" stroke="#d95f02" points="377.496,-364.061 374.727,-353.835 370.514,-363.556 377.496,-364.061"/>
</g>
<!-- GCRS&#45;&gt;ICRS -->
<g id="edge32" class="edge"><title>GCRS&#45;&gt;ICRS</title>
<path fill="none" stroke="#d95f02" d="M213.614,-344.594C236.33,-355.319 268.484,-372.741 295,-390 321.074,-406.971 325.809,-413.744 351,-432 366.461,-443.205 383.802,-455.389 397.61,-465.523"/>
<polygon fill="#d95f02" stroke="#d95f02" points="395.589,-468.382 405.702,-471.54 399.766,-462.765 395.589,-468.382"/>
</g>
<!-- GCRS&#45;&gt;CIRS -->
<g id="edge35" class="edge"><title>GCRS&#45;&gt;CIRS</title>
<path fill="none" stroke="#d95f02" d="M215.47,-341.969C248.094,-352.349 301.358,-371.376 346,-390 347.377,-390.575 348.775,-391.168 350.18,-391.775"/>
<polygon fill="#d95f02" stroke="#d95f02" points="348.869,-395.022 359.426,-395.914 351.729,-388.633 348.869,-395.022"/>
</g>
<!-- GCRS&#45;&gt;GCRS -->
<g id="edge33" class="edge"><title>GCRS&#45;&gt;GCRS</title>
<path fill="none" stroke="#d95f02" d="M210.439,-346.974C223.78,-349.465 236,-344.807 236,-333 236,-324.329 229.41,-319.514 220.625,-318.554"/>
<polygon fill="#d95f02" stroke="#d95f02" points="220.266,-315.067 210.439,-319.026 220.59,-322.06 220.266,-315.067"/>
</g>
<!-- GCRS&#45;&gt;HCRS -->
<g id="edge34" class="edge"><title>GCRS&#45;&gt;HCRS</title>
<path fill="none" stroke="#d95f02" d="M213.954,-322.229C224.009,-318.835 235.468,-315.104 246,-312 307.593,-293.848 379.937,-275.925 423.851,-265.417"/>
<polygon fill="#d95f02" stroke="#d95f02" points="424.927,-268.759 433.844,-263.037 423.305,-261.949 424.927,-268.759"/>
</g>
<!-- PrecessedGeocentric -->
<g id="node17" class="node"><title>PrecessedGeocentric</title>
<ellipse fill="none" stroke="black" cx="79" cy="-255" rx="79.3553" ry="21.4286"/>
<text text-anchor="middle" x="79" y="-258" font-family="Helvetica Neue, Helvetica, Arial, sans-serif" font-size="10.00">PrecessedGeocentric</text>
<text text-anchor="middle" x="79" y="-247" font-family="Helvetica Neue, Helvetica, Arial, sans-serif" font-size="10.00">`precessedgeocentric`</text>
</g>
<!-- GCRS&#45;&gt;PrecessedGeocentric -->
<g id="edge36" class="edge"><title>GCRS&#45;&gt;PrecessedGeocentric</title>
<path fill="none" stroke="#d95f02" d="M161.825,-318.588C146.093,-308.427 125.622,-294.156 108.903,-281.807"/>
<polygon fill="#d95f02" stroke="#d95f02" points="110.651,-278.744 100.547,-275.556 106.458,-284.349 110.651,-278.744"/>
</g>
<!-- GeocentricTrueEcliptic -->
<g id="node18" class="node"><title>GeocentricTrueEcliptic</title>
<ellipse fill="none" stroke="black" cx="259" cy="-255" rx="82.0366" ry="21.4286"/>
<text text-anchor="middle" x="259" y="-258" font-family="Helvetica Neue, Helvetica, Arial, sans-serif" font-size="10.00">GeocentricTrueEcliptic</text>
<text text-anchor="middle" x="259" y="-247" font-family="Helvetica Neue, Helvetica, Arial, sans-serif" font-size="10.00">`geocentrictrueecliptic`</text>
</g>
<!-- GCRS&#45;&gt;GeocentricTrueEcliptic -->
<g id="edge37" class="edge"><title>GCRS&#45;&gt;GeocentricTrueEcliptic</title>
<path fill="none" stroke="#d95f02" d="M198.129,-313.213C206.15,-303.946 216.855,-292.61 227.099,-282.48"/>
<polygon fill="#d95f02" stroke="#d95f02" points="229.693,-284.84 234.431,-275.364 224.817,-279.817 229.693,-284.84"/>
</g>
<!-- HCRS&#45;&gt;ICRS -->
<g id="edge38" class="edge"><title>HCRS&#45;&gt;ICRS</title>
<path fill="none" stroke="#555555" d="M466.708,-276.403C465.269,-309.277 455.11,-375.955 444,-432 442.181,-441.176 439.951,-451.139 437.414,-460.084"/>
<polygon fill="#555555" stroke="#555555" points="434.066,-459.064 434.424,-469.653 440.747,-461.152 434.066,-459.064"/>
</g>
<!-- HCRS&#45;&gt;HCRS -->
<g id="edge39" class="edge"><title>HCRS&#45;&gt;HCRS</title>
<path fill="none" stroke="#d95f02" d="M488.439,-268.974C501.78,-271.465 514,-266.807 514,-255 514,-246.329 507.41,-241.514 498.625,-240.554"/>
<polygon fill="#d95f02" stroke="#d95f02" points="498.266,-237.067 488.439,-241.026 498.59,-244.06 498.266,-237.067"/>
</g>
<!-- HeliographicStonyhurst -->
<g id="node19" class="node"><title>HeliographicStonyhurst</title>
<ellipse fill="none" stroke="black" cx="464" cy="-177" rx="88.0829" ry="21.4286"/>
<text text-anchor="middle" x="464" y="-180" font-family="Helvetica Neue, Helvetica, Arial, sans-serif" font-size="10.00">HeliographicStonyhurst</text>
<text text-anchor="middle" x="464" y="-169" font-family="Helvetica Neue, Helvetica, Arial, sans-serif" font-size="10.00">`heliographic_stonyhurst`</text>
</g>
<!-- HCRS&#45;&gt;HeliographicStonyhurst -->
<g id="edge40" class="edge"><title>HCRS&#45;&gt;HeliographicStonyhurst</title>
<path fill="none" stroke="#1b9e77" d="M457.977,-234.032C457.296,-226.215 457.093,-217.073 457.369,-208.468"/>
<polygon fill="#1b9e77" stroke="#1b9e77" points="460.87,-208.546 457.943,-198.363 453.882,-208.149 460.87,-208.546"/>
</g>
<!-- BarycentricTrueEcliptic&#45;&gt;ICRS -->
<g id="edge47" class="edge"><title>BarycentricTrueEcliptic&#45;&gt;ICRS</title>
<path fill="none" stroke="#1b9e77" d="M550.492,-430.481C522.863,-444.062 483.99,-462.208 456.175,-474.458"/>
<polygon fill="#1b9e77" stroke="#1b9e77" points="454.603,-471.325 446.834,-478.528 457.399,-477.742 454.603,-471.325"/>
</g>
<!-- HeliocentricTrueEcliptic&#45;&gt;ICRS -->
<g id="edge48" class="edge"><title>HeliocentricTrueEcliptic&#45;&gt;ICRS</title>
<path fill="none" stroke="#d95f02" d="M710.673,-426.134C638.713,-442.32 519.749,-468.211 459.414,-480.74"/>
<polygon fill="#d95f02" stroke="#d95f02" points="458.637,-477.327 449.551,-482.776 460.052,-484.182 458.637,-477.327"/>
</g>
<!-- GalacticLSR&#45;&gt;Galactic -->
<g id="edge25" class="edge"><title>GalacticLSR&#45;&gt;Galactic</title>
<path fill="none" stroke="#555555" d="M870.186,-352.46C878.505,-361.441 887.821,-372.423 895.622,-382.376"/>
<polygon fill="#555555" stroke="#555555" points="892.917,-384.6 901.764,-390.428 898.482,-380.354 892.917,-384.6"/>
</g>
<!-- Supergalactic&#45;&gt;Galactic -->
<g id="edge26" class="edge"><title>Supergalactic&#45;&gt;Galactic</title>
<path fill="none" stroke="#7570b3" d="M963.752,-353.943C956.896,-363.353 947.778,-374.687 939.048,-384.694"/>
<polygon fill="#7570b3" stroke="#7570b3" points="936.238,-382.586 932.181,-392.373 941.456,-387.252 936.238,-382.586"/>
</g>
<!-- AltAz&#45;&gt;CIRS -->
<g id="edge41" class="edge"><title>AltAz&#45;&gt;CIRS</title>
<path fill="none" stroke="#d95f02" d="M308.524,-347.88C323.141,-358.53 341.965,-373.49 356.711,-386.06"/>
<polygon fill="#d95f02" stroke="#d95f02" points="354.583,-388.847 364.431,-392.754 359.169,-383.559 354.583,-388.847"/>
</g>
<!-- AltAz&#45;&gt;AltAz -->
<g id="edge42" class="edge"><title>AltAz&#45;&gt;AltAz</title>
<path fill="none" stroke="#d95f02" d="M309.697,-346.925C322.87,-349.525 335,-344.883 335,-333 335,-324.274 328.458,-319.452 319.765,-318.536"/>
<polygon fill="#d95f02" stroke="#d95f02" points="319.496,-315.046 309.697,-319.075 319.87,-322.036 319.496,-315.046"/>
</g>
<!-- ITRS&#45;&gt;CIRS -->
<g id="edge43" class="edge"><title>ITRS&#45;&gt;CIRS</title>
<path fill="none" stroke="#d95f02" d="M386.751,-353.835C387.343,-361.761 387.425,-371.066 387.019,-379.798"/>
<polygon fill="#d95f02" stroke="#d95f02" points="383.51,-379.807 386.286,-390.032 390.492,-380.308 383.51,-379.807"/>
</g>
<!-- ITRS&#45;&gt;ITRS -->
<g id="edge44" class="edge"><title>ITRS&#45;&gt;ITRS</title>
<path fill="none" stroke="#d95f02" d="M402.77,-346.822C415.318,-349.642 427,-345.035 427,-333 427,-324.35 420.965,-319.537 412.911,-318.561"/>
<polygon fill="#d95f02" stroke="#d95f02" points="412.539,-315.077 402.77,-319.178 412.964,-322.064 412.539,-315.077"/>
</g>
<!-- PrecessedGeocentric&#45;&gt;GCRS -->
<g id="edge45" class="edge"><title>PrecessedGeocentric&#45;&gt;GCRS</title>
<path fill="none" stroke="#d95f02" d="M111.214,-274.686C126.765,-285.028 145.105,-297.971 159.795,-308.938"/>
<polygon fill="#d95f02" stroke="#d95f02" points="157.889,-311.885 167.973,-315.133 162.115,-306.305 157.889,-311.885"/>
</g>
<!-- GeocentricTrueEcliptic&#45;&gt;GCRS -->
<g id="edge46" class="edge"><title>GeocentricTrueEcliptic&#45;&gt;GCRS</title>
<path fill="none" stroke="#d95f02" d="M245.754,-276.071C236.828,-286.282 224.936,-298.734 214.048,-309.295"/>
<polygon fill="#d95f02" stroke="#d95f02" points="211.561,-306.829 206.718,-316.253 216.38,-311.906 211.561,-306.829"/>
</g>
<!-- HeliographicStonyhurst&#45;&gt;HCRS -->
<g id="edge51" class="edge"><title>HeliographicStonyhurst&#45;&gt;HCRS</title>
<path fill="none" stroke="#1b9e77" d="M470.057,-198.363C470.722,-206.224 470.908,-215.379 470.616,-223.965"/>
<polygon fill="#1b9e77" stroke="#1b9e77" points="467.118,-223.843 470.023,-234.032 474.106,-224.255 467.118,-223.843"/>
</g>
<!-- HeliographicCarrington -->
<g id="node20" class="node"><title>HeliographicCarrington</title>
<ellipse fill="none" stroke="black" cx="387" cy="-99" rx="85.9015" ry="21.4286"/>
<text text-anchor="middle" x="387" y="-102" font-family="Helvetica Neue, Helvetica, Arial, sans-serif" font-size="10.00">HeliographicCarrington</text>
<text text-anchor="middle" x="387" y="-91" font-family="Helvetica Neue, Helvetica, Arial, sans-serif" font-size="10.00">`heliographic_carrington`</text>
</g>
<!-- HeliographicStonyhurst&#45;&gt;HeliographicCarrington -->
<g id="edge49" class="edge"><title>HeliographicStonyhurst&#45;&gt;HeliographicCarrington</title>
<path fill="none" stroke="#783001" d="M438.182,-156.428C428.461,-147.613 417.587,-137.053 408.312,-127.464"/>
<polygon fill="#783001" stroke="#783001" points="410.689,-124.885 401.269,-120.035 405.609,-129.7 410.689,-124.885"/>
</g>
<!-- Heliocentric -->
<g id="node21" class="node"><title>Heliocentric</title>
<ellipse fill="none" stroke="black" cx="542" cy="-99" rx="50.3685" ry="21.4286"/>
<text text-anchor="middle" x="542" y="-102" font-family="Helvetica Neue, Helvetica, Arial, sans-serif" font-size="10.00">Heliocentric</text>
<text text-anchor="middle" x="542" y="-91" font-family="Helvetica Neue, Helvetica, Arial, sans-serif" font-size="10.00">`heliocentric`</text>
</g>
<!-- HeliographicStonyhurst&#45;&gt;Heliocentric -->
<g id="edge50" class="edge"><title>HeliographicStonyhurst&#45;&gt;Heliocentric</title>
<path fill="none" stroke="#783001" d="M478.47,-156.032C487.532,-146.384 499.394,-134.717 510.464,-124.533"/>
<polygon fill="#783001" stroke="#783001" points="512.884,-127.063 517.956,-117.762 508.19,-121.87 512.884,-127.063"/>
</g>
<!-- HeliographicCarrington&#45;&gt;HeliographicStonyhurst -->
<g id="edge52" class="edge"><title>HeliographicCarrington&#45;&gt;HeliographicStonyhurst</title>
<path fill="none" stroke="#783001" d="M412.529,-119.31C422.322,-128.176 433.319,-138.849 442.685,-148.532"/>
<polygon fill="#783001" stroke="#783001" points="440.373,-151.181 449.792,-156.032 445.454,-146.366 440.373,-151.181"/>
</g>
<!-- Heliocentric&#45;&gt;HeliographicStonyhurst -->
<g id="edge54" class="edge"><title>Heliocentric&#45;&gt;HeliographicStonyhurst</title>
<path fill="none" stroke="#783001" d="M527.963,-119.506C519.424,-128.627 508.294,-139.629 497.674,-149.492"/>
<polygon fill="#783001" stroke="#783001" points="495.101,-147.101 490.075,-156.428 499.82,-152.271 495.101,-147.101"/>
</g>
<!-- Helioprojective -->
<g id="node22" class="node"><title>Helioprojective</title>
<ellipse fill="none" stroke="black" cx="542" cy="-21" rx="60.1562" ry="21.4286"/>
<text text-anchor="middle" x="542" y="-24" font-family="Helvetica Neue, Helvetica, Arial, sans-serif" font-size="10.00">Helioprojective</text>
<text text-anchor="middle" x="542" y="-13" font-family="Helvetica Neue, Helvetica, Arial, sans-serif" font-size="10.00">`helioprojective`</text>
</g>
<!-- Heliocentric&#45;&gt;Helioprojective -->
<g id="edge53" class="edge"><title>Heliocentric&#45;&gt;Helioprojective</title>
<path fill="none" stroke="#783001" d="M535.943,-77.6334C535.282,-69.8186 535.094,-60.7253 535.379,-52.183"/>
<polygon fill="#783001" stroke="#783001" points="538.875,-52.3453 535.96,-42.1593 531.887,-51.9397 538.875,-52.3453"/>
</g>
<!-- Helioprojective&#45;&gt;Heliocentric -->
<g id="edge55" class="edge"><title>Helioprojective&#45;&gt;Heliocentric</title>
<path fill="none" stroke="#783001" d="M548.04,-42.1593C548.709,-49.9513 548.905,-59.038 548.629,-67.59"/>
<polygon fill="#783001" stroke="#783001" points="545.131,-67.4507 548.057,-77.6334 552.12,-67.8484 545.131,-67.4507"/>
</g>
<!-- Helioprojective&#45;&gt;Helioprojective -->
<g id="edge56" class="edge"><title>Helioprojective&#45;&gt;Helioprojective</title>
<path fill="none" stroke="#783001" d="M586.102,-35.4965C604.448,-36.4962 620,-31.6641 620,-21 620,-12.4188 609.93,-7.61381 596.437,-6.58515"/>
<polygon fill="#783001" stroke="#783001" points="596.129,-3.08271 586.102,-6.50354 596.074,-10.0825 596.129,-3.08271"/>
</g>
<!-- BaseRADecFrame -->
<g id="node23" class="node"><title>BaseRADecFrame</title>
<ellipse fill="none" stroke="black" cx="980" cy="-567" rx="57.9178" ry="18"/>
<text text-anchor="middle" x="980" y="-564.5" font-family="Helvetica Neue, Helvetica, Arial, sans-serif" font-size="10.00">BaseRADecFrame</text>
</g>
<!-- BaseEclipticFrame -->
<g id="node24" class="node"><title>BaseEclipticFrame</title>
<ellipse fill="none" stroke="black" cx="1115" cy="-567" rx="57.9178" ry="18"/>
<text text-anchor="middle" x="1115" y="-564.5" font-family="Helvetica Neue, Helvetica, Arial, sans-serif" font-size="10.00">BaseEclipticFrame</text>
</g>
<!-- SkyOffsetFrame -->
<g id="node25" class="node"><title>SkyOffsetFrame</title>
<ellipse fill="none" stroke="black" cx="1244" cy="-567" rx="52.0871" ry="18"/>
<text text-anchor="middle" x="1244" y="-564.5" font-family="Helvetica Neue, Helvetica, Arial, sans-serif" font-size="10.00">SkyOffsetFrame</text>
</g>
</g>
</svg>
