<?xml version="1.0" encoding="UTF-8" standalone="no"?>
<!DOCTYPE svg PUBLIC "-//W3C//DTD SVG 1.1//EN"
 "http://www.w3.org/Graphics/SVG/1.1/DTD/svg11.dtd">
<!-- Generated by graphviz version 2.36.0 (20140111.2315)
 -->
<!-- Title: inheritanceb1f4183314 Pages: 1 -->
<svg width="274pt" height="322pt"
 viewBox="0.00 0.00 274.00 322.00" xmlns="http://www.w3.org/2000/svg" xmlns:xlink="http://www.w3.org/1999/xlink">
<g id="graph0" class="graph" transform="scale(1 1) rotate(0) translate(4 318)">
<title>inheritanceb1f4183314</title>
<polygon fill="white" stroke="none" points="-4,4 -4,-318 270,-318 270,4 -4,4"/>
<!-- EVELightCurve -->
<g id="node1" class="node"><title>EVELightCurve</title>
<g id="a_node1"><a xlink:href="../../api/sunpy.lightcurve.EVELightCurve.html#sunpy.lightcurve.EVELightCurve" xlink:title="SDO EVE LightCurve for level 0CS data." target="_top">
<polygon fill="none" stroke="black" stroke-width="0.5" points="228,-314.5 142,-314.5 142,-295.5 228,-295.5 228,-314.5"/>
<text text-anchor="middle" x="185" y="-302.5" font-family="Vera Sans, DejaVu Sans, Liberation Sans, Arial, Helvetica, sans" font-size="10.00">EVELightCurve</text>
</a>
</g>
</g>
<!-- LightCurve -->
<g id="node2" class="node"><title>LightCurve</title>
<g id="a_node2"><a xlink:href="../../api/sunpy.lightcurve.LightCurve.html#sunpy.lightcurve.LightCurve" xlink:title="LightCurve(filepath)" target="_top">
<polygon fill="none" stroke="black" stroke-width="0.5" points="68,-166.5 0,-166.5 0,-147.5 68,-147.5 68,-166.5"/>
<text text-anchor="middle" x="34" y="-154.5" font-family="Vera Sans, DejaVu Sans, Liberation Sans, Arial, Helvetica, sans" font-size="10.00">LightCurve</text>
</a>
</g>
</g>
<!-- LightCurve&#45;&gt;EVELightCurve -->
<g id="edge1" class="edge"><title>LightCurve&#45;&gt;EVELightCurve</title>
<path fill="none" stroke="black" stroke-width="0.5" d="M37.2133,-166.536C43.3195,-190.618 62.7534,-254.225 104,-286 113.4,-293.242 125.131,-297.784 136.687,-300.616"/>
<polygon fill="black" stroke="black" stroke-width="0.5" points="136.359,-302.336 141.622,-301.728 137.129,-298.921 136.359,-302.336"/>
</g>
<!-- GBMSummaryLightCurve -->
<g id="node3" class="node"><title>GBMSummaryLightCurve</title>
<g id="a_node3"><a xlink:href="../../api/sunpy.lightcurve.GBMSummaryLightCurve.html#sunpy.lightcurve.GBMSummaryLightCurve" xlink:title="Fermi/GBM Summary Lightcurve." target="_top">
<polygon fill="none" stroke="black" stroke-width="0.5" points="253.5,-277.5 116.5,-277.5 116.5,-258.5 253.5,-258.5 253.5,-277.5"/>
<text text-anchor="middle" x="185" y="-265.5" font-family="Vera Sans, DejaVu Sans, Liberation Sans, Arial, Helvetica, sans" font-size="10.00">GBMSummaryLightCurve</text>
</a>
</g>
</g>
<!-- LightCurve&#45;&gt;GBMSummaryLightCurve -->
<g id="edge2" class="edge"><title>LightCurve&#45;&gt;GBMSummaryLightCurve</title>
<path fill="none" stroke="black" stroke-width="0.5" d="M39.2009,-166.257C48.2125,-185.015 71.2727,-227.547 104,-249 108.662,-252.056 113.763,-254.621 119.06,-256.775"/>
<polygon fill="black" stroke="black" stroke-width="0.5" points="118.678,-258.502 123.973,-258.64 119.92,-255.23 118.678,-258.502"/>
</g>
<!-- GOESLightCurve -->
<g id="node4" class="node"><title>GOESLightCurve</title>
<g id="a_node4"><a xlink:href="../../api/sunpy.lightcurve.GOESLightCurve.html#sunpy.lightcurve.GOESLightCurve" xlink:title="GOES XRS LightCurve" target="_top">
<polygon fill="none" stroke="black" stroke-width="0.5" points="232.5,-240.5 137.5,-240.5 137.5,-221.5 232.5,-221.5 232.5,-240.5"/>
<text text-anchor="middle" x="185" y="-228.5" font-family="Vera Sans, DejaVu Sans, Liberation Sans, Arial, Helvetica, sans" font-size="10.00">GOESLightCurve</text>
</a>
</g>
</g>
<!-- LightCurve&#45;&gt;GOESLightCurve -->
<g id="edge3" class="edge"><title>LightCurve&#45;&gt;GOESLightCurve</title>
<path fill="none" stroke="black" stroke-width="0.5" d="M43.9014,-166.299C56.2358,-178.628 79.7586,-200.198 104,-212 112.744,-216.257 122.499,-219.594 132.109,-222.199"/>
<polygon fill="black" stroke="black" stroke-width="0.5" points="131.835,-223.936 137.114,-223.495 132.713,-220.547 131.835,-223.936"/>
</g>
<!-- LYRALightCurve -->
<g id="node5" class="node"><title>LYRALightCurve</title>
<g id="a_node5"><a xlink:href="../../api/sunpy.lightcurve.LYRALightCurve.html#sunpy.lightcurve.LYRALightCurve" xlink:title="Proba&#45;2 LYRA LightCurve." target="_top">
<polygon fill="none" stroke="black" stroke-width="0.5" points="229.5,-203.5 140.5,-203.5 140.5,-184.5 229.5,-184.5 229.5,-203.5"/>
<text text-anchor="middle" x="185" y="-191.5" font-family="Vera Sans, DejaVu Sans, Liberation Sans, Arial, Helvetica, sans" font-size="10.00">LYRALightCurve</text>
</a>
</g>
</g>
<!-- LightCurve&#45;&gt;LYRALightCurve -->
<g id="edge4" class="edge"><title>LightCurve&#45;&gt;LYRALightCurve</title>
<path fill="none" stroke="black" stroke-width="0.5" d="M68.3031,-165.846C79.6192,-168.809 92.3476,-172.097 104,-175 115.393,-177.839 127.723,-180.815 139.213,-183.546"/>
<polygon fill="black" stroke="black" stroke-width="0.5" points="138.811,-185.25 144.08,-184.701 139.619,-181.844 138.811,-185.25"/>
</g>
<!-- LogicalLightCurve -->
<g id="node6" class="node"><title>LogicalLightCurve</title>
<g id="a_node6"><a xlink:href="../../api/sunpy.lightcurve.LogicalLightCurve.html#sunpy.lightcurve.LogicalLightCurve" xlink:title="Logical LightCurve with only True and False values." target="_top">
<polygon fill="none" stroke="black" stroke-width="0.5" points="235.5,-166.5 134.5,-166.5 134.5,-147.5 235.5,-147.5 235.5,-166.5"/>
<text text-anchor="middle" x="185" y="-154.5" font-family="Vera Sans, DejaVu Sans, Liberation Sans, Arial, Helvetica, sans" font-size="10.00">LogicalLightCurve</text>
</a>
</g>
</g>
<!-- LightCurve&#45;&gt;LogicalLightCurve -->
<g id="edge5" class="edge"><title>LightCurve&#45;&gt;LogicalLightCurve</title>
<path fill="none" stroke="black" stroke-width="0.5" d="M68.0679,-157C86.0094,-157 108.652,-157 129.155,-157"/>
<polygon fill="black" stroke="black" stroke-width="0.5" points="129.317,-158.75 134.317,-157 129.317,-155.25 129.317,-158.75"/>
</g>
<!-- NOAAIndicesLightCurve -->
<g id="node7" class="node"><title>NOAAIndicesLightCurve</title>
<g id="a_node7"><a xlink:href="../../api/sunpy.lightcurve.NOAAIndicesLightCurve.html#sunpy.lightcurve.NOAAIndicesLightCurve" xlink:title="NOAA Solar Cycle monthly indices." target="_top">
<polygon fill="none" stroke="black" stroke-width="0.5" points="249.5,-129.5 120.5,-129.5 120.5,-110.5 249.5,-110.5 249.5,-129.5"/>
<text text-anchor="middle" x="185" y="-117.5" font-family="Vera Sans, DejaVu Sans, Liberation Sans, Arial, Helvetica, sans" font-size="10.00">NOAAIndicesLightCurve</text>
</a>
</g>
</g>
<!-- LightCurve&#45;&gt;NOAAIndicesLightCurve -->
<g id="edge6" class="edge"><title>LightCurve&#45;&gt;NOAAIndicesLightCurve</title>
<path fill="none" stroke="black" stroke-width="0.5" d="M68.3031,-148.154C79.6192,-145.191 92.3476,-141.903 104,-139 115.393,-136.161 127.723,-133.185 139.213,-130.454"/>
<polygon fill="black" stroke="black" stroke-width="0.5" points="139.619,-132.156 144.08,-129.299 138.811,-128.75 139.619,-132.156"/>
</g>
<!-- NOAAPredictIndicesLightCurve -->
<g id="node8" class="node"><title>NOAAPredictIndicesLightCurve</title>
<g id="a_node8"><a xlink:href="../../api/sunpy.lightcurve.NOAAPredictIndicesLightCurve.html#sunpy.lightcurve.NOAAPredictIndicesLightCurve" xlink:title="NOAA Solar Cycle Predicted Progression" target="_top">
<polygon fill="none" stroke="black" stroke-width="0.5" points="266,-92.5 104,-92.5 104,-73.5 266,-73.5 266,-92.5"/>
<text text-anchor="middle" x="185" y="-80.5" font-family="Vera Sans, DejaVu Sans, Liberation Sans, Arial, Helvetica, sans" font-size="10.00">NOAAPredictIndicesLightCurve</text>
</a>
</g>
</g>
<!-- LightCurve&#45;&gt;NOAAPredictIndicesLightCurve -->
<g id="edge7" class="edge"><title>LightCurve&#45;&gt;NOAAPredictIndicesLightCurve</title>
<path fill="none" stroke="black" stroke-width="0.5" d="M43.9014,-147.701C56.2358,-135.372 79.7586,-113.802 104,-102 110.674,-98.7507 117.938,-96.0374 125.276,-93.7766"/>
<polygon fill="black" stroke="black" stroke-width="0.5" points="126.058,-95.3709 130.362,-92.2826 125.071,-92.0128 126.058,-95.3709"/>
</g>
<!-- NoRHLightCurve -->
<g id="node9" class="node"><title>NoRHLightCurve</title>
<g id="a_node9"><a xlink:href="../../api/sunpy.lightcurve.NoRHLightCurve.html#sunpy.lightcurve.NoRHLightCurve" xlink:title="Nobeyama Radioheliograph Correlation LightCurve." target="_top">
<polygon fill="none" stroke="black" stroke-width="0.5" points="232.5,-55.5 137.5,-55.5 137.5,-36.5 232.5,-36.5 232.5,-55.5"/>
<text text-anchor="middle" x="185" y="-43.5" font-family="Vera Sans, DejaVu Sans, Liberation Sans, Arial, Helvetica, sans" font-size="10.00">NoRHLightCurve</text>
</a>
</g>
</g>
<!-- LightCurve&#45;&gt;NoRHLightCurve -->
<g id="edge8" class="edge"><title>LightCurve&#45;&gt;NoRHLightCurve</title>
<path fill="none" stroke="black" stroke-width="0.5" d="M39.2009,-147.743C48.2125,-128.985 71.2727,-86.453 104,-65 112.516,-59.4179 122.497,-55.4714 132.465,-52.6824"/>
<polygon fill="black" stroke="black" stroke-width="0.5" points="132.957,-54.3627 137.351,-51.4042 132.071,-50.9766 132.957,-54.3627"/>
</g>
<!-- RHESSISummaryLightCurve -->
<g id="node10" class="node"><title>RHESSISummaryLightCurve</title>
<g id="a_node10"><a xlink:href="../../api/sunpy.lightcurve.RHESSISummaryLightCurve.html#sunpy.lightcurve.RHESSISummaryLightCurve" xlink:title="RHESSI X&#45;ray Summary LightCurve." target="_top">
<polygon fill="none" stroke="black" stroke-width="0.5" points="260,-18.5 110,-18.5 110,0.5 260,0.5 260,-18.5"/>
<text text-anchor="middle" x="185" y="-6.5" font-family="Vera Sans, DejaVu Sans, Liberation Sans, Arial, Helvetica, sans" font-size="10.00">RHESSISummaryLightCurve</text>
</a>
</g>
</g>
<!-- LightCurve&#45;&gt;RHESSISummaryLightCurve -->
<g id="edge9" class="edge"><title>LightCurve&#45;&gt;RHESSISummaryLightCurve</title>
<path fill="none" stroke="black" stroke-width="0.5" d="M37.2133,-147.464C43.3195,-123.382 62.7534,-59.7748 104,-28 107.902,-24.9944 112.204,-22.4539 116.73,-20.3076"/>
<polygon fill="black" stroke="black" stroke-width="0.5" points="117.448,-21.9034 121.322,-18.2901 116.041,-18.6989 117.448,-21.9034"/>
</g>
</g>
</svg>
