<?xml version="1.0" encoding="UTF-8" standalone="no"?>
<!DOCTYPE svg PUBLIC "-//W3C//DTD SVG 1.1//EN"
 "http://www.w3.org/Graphics/SVG/1.1/DTD/svg11.dtd">
<!-- Generated by graphviz version 2.36.0 (20140111.2315)
 -->
<!-- Title: inheritancebe4dca2084 Pages: 1 -->
<svg width="272pt" height="100pt"
 viewBox="0.00 0.00 272.00 100.00" xmlns="http://www.w3.org/2000/svg" xmlns:xlink="http://www.w3.org/1999/xlink">
<g id="graph0" class="graph" transform="scale(1 1) rotate(0) translate(4 96)">
<title>inheritancebe4dca2084</title>
<polygon fill="white" stroke="none" points="-4,4 -4,-96 268,-96 268,4 -4,4"/>
<!-- MetaDict -->
<g id="node1" class="node"><title>MetaDict</title>
<g id="a_node1"><a xlink:href="../../api/sunpy.util.MetaDict.html#sunpy.util.MetaDict" xlink:title="A class to hold meta data associated with a Map derivative." target="_top">
<polygon fill="none" stroke="black" stroke-width="0.5" points="221.5,-18.5 162.5,-18.5 162.5,0.5 221.5,0.5 221.5,-18.5"/>
<text text-anchor="middle" x="192" y="-6.5" font-family="Vera Sans, DejaVu Sans, Liberation Sans, Arial, Helvetica, sans" font-size="10.00">MetaDict</text>
</a>
</g>
</g>
<!-- OrderedDict -->
<g id="node2" class="node"><title>OrderedDict</title>
<g id="a_node2"><a xlink:title="Dictionary that remembers insertion order">
<polygon fill="none" stroke="black" stroke-width="0.5" points="79,-18.5 5,-18.5 5,0.5 79,0.5 79,-18.5"/>
<text text-anchor="middle" x="42" y="-6.5" font-family="Vera Sans, DejaVu Sans, Liberation Sans, Arial, Helvetica, sans" font-size="10.00">OrderedDict</text>
</a>
</g>
</g>
<!-- OrderedDict&#45;&gt;MetaDict -->
<g id="edge1" class="edge"><title>OrderedDict&#45;&gt;MetaDict</title>
<path fill="none" stroke="black" stroke-width="0.5" d="M79.2049,-9C102.914,-9 133.698,-9 156.958,-9"/>
<polygon fill="black" stroke="black" stroke-width="0.5" points="157.1,-10.7501 162.1,-9 157.1,-7.2501 157.1,-10.7501"/>
</g>
<!-- SunpyDeprecationWarning -->
<g id="node3" class="node"><title>SunpyDeprecationWarning</title>
<g id="a_node3"><a xlink:href="../../api/sunpy.util.SunpyDeprecationWarning.html#sunpy.util.SunpyDeprecationWarning" xlink:title="A warning class to indicate a deprecated feature." target="_top">
<polygon fill="none" stroke="black" stroke-width="0.5" points="263.5,-92.5 120.5,-92.5 120.5,-73.5 263.5,-73.5 263.5,-92.5"/>
<text text-anchor="middle" x="192" y="-80.5" font-family="Vera Sans, DejaVu Sans, Liberation Sans, Arial, Helvetica, sans" font-size="10.00">SunpyDeprecationWarning</text>
</a>
</g>
</g>
<!-- SunpyWarning -->
<g id="node4" class="node"><title>SunpyWarning</title>
<g id="a_node4"><a xlink:href="../../api/sunpy.util.SunpyWarning.html#sunpy.util.SunpyWarning" xlink:title="The base warning class from which all Sunpy warnings should inherit." target="_top">
<polygon fill="none" stroke="black" stroke-width="0.5" points="84,-73.5 7.10543e-15,-73.5 7.10543e-15,-54.5 84,-54.5 84,-73.5"/>
<text text-anchor="middle" x="42" y="-61.5" font-family="Vera Sans, DejaVu Sans, Liberation Sans, Arial, Helvetica, sans" font-size="10.00">SunpyWarning</text>
</a>
</g>
</g>
<!-- SunpyWarning&#45;&gt;SunpyDeprecationWarning -->
<g id="edge2" class="edge"><title>SunpyWarning&#45;&gt;SunpyDeprecationWarning</title>
<path fill="none" stroke="black" stroke-width="0.5" d="M84.2263,-69.2926C93.8552,-70.5287 104.412,-71.884 115.023,-73.2462"/>
<polygon fill="black" stroke="black" stroke-width="0.5" points="115.05,-75.014 120.232,-73.915 115.496,-71.5425 115.05,-75.014"/>
</g>
<!-- SunpyUserWarning -->
<g id="node5" class="node"><title>SunpyUserWarning</title>
<g id="a_node5"><a xlink:href="../../api/sunpy.util.SunpyUserWarning.html#sunpy.util.SunpyUserWarning" xlink:title="The primary warning class for Sunpy." target="_top">
<polygon fill="none" stroke="black" stroke-width="0.5" points="245.5,-55.5 138.5,-55.5 138.5,-36.5 245.5,-36.5 245.5,-55.5"/>
<text text-anchor="middle" x="192" y="-43.5" font-family="Vera Sans, DejaVu Sans, Liberation Sans, Arial, Helvetica, sans" font-size="10.00">SunpyUserWarning</text>
</a>
</g>
</g>
<!-- SunpyWarning&#45;&gt;SunpyUserWarning -->
<g id="edge3" class="edge"><title>SunpyWarning&#45;&gt;SunpyUserWarning</title>
<path fill="none" stroke="black" stroke-width="0.5" d="M84.2263,-58.986C99.4187,-57.1383 116.921,-55.0096 133.302,-53.0174"/>
<polygon fill="black" stroke="black" stroke-width="0.5" points="133.593,-54.7449 138.345,-52.4039 133.171,-51.2705 133.593,-54.7449"/>
</g>
</g>
</svg>
