<?xml version="1.0" encoding="UTF-8" standalone="no"?>
<!DOCTYPE svg PUBLIC "-//W3C//DTD SVG 1.1//EN"
 "http://www.w3.org/Graphics/SVG/1.1/DTD/svg11.dtd">
<!-- Generated by graphviz version 2.36.0 (20140111.2315)
 -->
<!-- Title: inheritance608f5bf2c1 Pages: 1 -->
<svg width="576pt" height="61pt"
 viewBox="0.00 0.00 576.00 61.43" xmlns="http://www.w3.org/2000/svg" xmlns:xlink="http://www.w3.org/1999/xlink">
<g id="graph0" class="graph" transform="scale(0.563601 0.563601) rotate(0) translate(4 105)">
<title>inheritance608f5bf2c1</title>
<polygon fill="white" stroke="none" points="-4,4 -4,-105 1018,-105 1018,4 -4,4"/>
<!-- Angle -->
<g id="node1" class="node"><title>Angle</title>
<g id="a_node1"><a xlink:title="One or more angular value(s) with units equivalent to radians or degrees.">
<polygon fill="none" stroke="black" stroke-width="0.5" points="617,-18.5 563,-18.5 563,0.5 617,0.5 617,-18.5"/>
<text text-anchor="middle" x="590" y="-6.5" font-family="Vera Sans, DejaVu Sans, Liberation Sans, Arial, Helvetica, sans" font-size="10.00">Angle</text>
</a>
</g>
</g>
<!-- Longitude -->
<g id="node6" class="node"><title>Longitude</title>
<g id="a_node6"><a xlink:title="Longitude&#45;like angle(s) which are wrapped within a contiguous 360 degree range.">
<polygon fill="none" stroke="black" stroke-width="0.5" points="831,-18.5 767,-18.5 767,0.5 831,0.5 831,-18.5"/>
<text text-anchor="middle" x="799" y="-6.5" font-family="Vera Sans, DejaVu Sans, Liberation Sans, Arial, Helvetica, sans" font-size="10.00">Longitude</text>
</a>
</g>
</g>
<!-- Angle&#45;&gt;Longitude -->
<g id="edge4" class="edge"><title>Angle&#45;&gt;Longitude</title>
<path fill="none" stroke="black" stroke-width="0.5" d="M617.217,-9C653.836,-9 720.443,-9 761.781,-9"/>
<polygon fill="black" stroke="black" stroke-width="0.5" points="761.942,-10.7501 766.942,-9 761.942,-7.2501 761.942,-10.7501"/>
</g>
<!-- SpecificTypeQuantity -->
<g id="node2" class="node"><title>SpecificTypeQuantity</title>
<g id="a_node2"><a xlink:title="Superclass for Quantities of specific physical type.">
<polygon fill="none" stroke="black" stroke-width="0.5" points="477.5,-18.5 362.5,-18.5 362.5,0.5 477.5,0.5 477.5,-18.5"/>
<text text-anchor="middle" x="420" y="-6.5" font-family="Vera Sans, DejaVu Sans, Liberation Sans, Arial, Helvetica, sans" font-size="10.00">SpecificTypeQuantity</text>
</a>
</g>
</g>
<!-- SpecificTypeQuantity&#45;&gt;Angle -->
<g id="edge1" class="edge"><title>SpecificTypeQuantity&#45;&gt;Angle</title>
<path fill="none" stroke="black" stroke-width="0.5" d="M477.877,-9C504.491,-9 535.175,-9 557.547,-9"/>
<polygon fill="black" stroke="black" stroke-width="0.5" points="557.762,-10.7501 562.762,-9 557.762,-7.2501 557.762,-10.7501"/>
</g>
<!-- BaseRepresentation -->
<g id="node3" class="node"><title>BaseRepresentation</title>
<g id="a_node3"><a xlink:title="Base for representing a point in a 3D coordinate system.">
<polygon fill="none" stroke="black" stroke-width="0.5" points="476.5,-73.5 363.5,-73.5 363.5,-54.5 476.5,-54.5 476.5,-73.5"/>
<text text-anchor="middle" x="420" y="-61.5" font-family="Vera Sans, DejaVu Sans, Liberation Sans, Arial, Helvetica, sans" font-size="10.00">BaseRepresentation</text>
</a>
</g>
</g>
<!-- SphericalRepresentation -->
<g id="node10" class="node"><title>SphericalRepresentation</title>
<g id="a_node10"><a xlink:title="Representation of points in 3D spherical coordinates.">
<polygon fill="none" stroke="black" stroke-width="0.5" points="656.5,-101.5 523.5,-101.5 523.5,-82.5 656.5,-82.5 656.5,-101.5"/>
<text text-anchor="middle" x="590" y="-89.5" font-family="Vera Sans, DejaVu Sans, Liberation Sans, Arial, Helvetica, sans" font-size="10.00">SphericalRepresentation</text>
</a>
</g>
</g>
<!-- BaseRepresentation&#45;&gt;SphericalRepresentation -->
<g id="edge8" class="edge"><title>BaseRepresentation&#45;&gt;SphericalRepresentation</title>
<path fill="none" stroke="black" stroke-width="0.5" d="M476.942,-73.3236C493.377,-76.0629 511.432,-79.072 528.158,-81.8596"/>
<polygon fill="black" stroke="black" stroke-width="0.5" points="528.083,-83.6212 533.303,-82.7171 528.658,-80.1689 528.083,-83.6212"/>
</g>
<!-- UnitSphericalRepresentation -->
<g id="node12" class="node"><title>UnitSphericalRepresentation</title>
<g id="a_node12"><a xlink:title="Representation of points on a unit sphere.">
<polygon fill="none" stroke="black" stroke-width="0.5" points="666,-64.5 514,-64.5 514,-45.5 666,-45.5 666,-64.5"/>
<text text-anchor="middle" x="590" y="-52.5" font-family="Vera Sans, DejaVu Sans, Liberation Sans, Arial, Helvetica, sans" font-size="10.00">UnitSphericalRepresentation</text>
</a>
</g>
</g>
<!-- BaseRepresentation&#45;&gt;UnitSphericalRepresentation -->
<g id="edge10" class="edge"><title>BaseRepresentation&#45;&gt;UnitSphericalRepresentation</title>
<path fill="none" stroke="black" stroke-width="0.5" d="M476.942,-61.0031C487.113,-60.4582 497.905,-59.8801 508.618,-59.3062"/>
<polygon fill="black" stroke="black" stroke-width="0.5" points="508.969,-61.04 513.868,-59.0249 508.781,-57.545 508.969,-61.04"/>
</g>
<!-- BaseRepresentationOrDifferential -->
<g id="node4" class="node"><title>BaseRepresentationOrDifferential</title>
<g id="a_node4"><a xlink:title="3D coordinate representations and differentials.">
<polygon fill="none" stroke="black" stroke-width="0.5" points="326,-73.5 150,-73.5 150,-54.5 326,-54.5 326,-73.5"/>
<text text-anchor="middle" x="238" y="-61.5" font-family="Vera Sans, DejaVu Sans, Liberation Sans, Arial, Helvetica, sans" font-size="10.00">BaseRepresentationOrDifferential</text>
</a>
</g>
</g>
<!-- BaseRepresentationOrDifferential&#45;&gt;BaseRepresentation -->
<g id="edge2" class="edge"><title>BaseRepresentationOrDifferential&#45;&gt;BaseRepresentation</title>
<path fill="none" stroke="black" stroke-width="0.5" d="M326.1,-64C336.974,-64 347.904,-64 358.255,-64"/>
<polygon fill="black" stroke="black" stroke-width="0.5" points="358.287,-65.7501 363.287,-64 358.287,-62.2501 358.287,-65.7501"/>
</g>
<!-- ShapedLikeNDArray -->
<g id="node5" class="node"><title>ShapedLikeNDArray</title>
<g id="a_node5"><a xlink:title="Mixin class to provide shape&#45;changing methods.">
<polygon fill="none" stroke="black" stroke-width="0.5" points="113.5,-73.5 0.5,-73.5 0.5,-54.5 113.5,-54.5 113.5,-73.5"/>
<text text-anchor="middle" x="57" y="-61.5" font-family="Vera Sans, DejaVu Sans, Liberation Sans, Arial, Helvetica, sans" font-size="10.00">ShapedLikeNDArray</text>
</a>
</g>
</g>
<!-- ShapedLikeNDArray&#45;&gt;BaseRepresentationOrDifferential -->
<g id="edge3" class="edge"><title>ShapedLikeNDArray&#45;&gt;BaseRepresentationOrDifferential</title>
<path fill="none" stroke="black" stroke-width="0.5" d="M113.656,-64C123.534,-64 134.057,-64 144.633,-64"/>
<polygon fill="black" stroke="black" stroke-width="0.5" points="144.827,-65.7501 149.827,-64 144.827,-62.2501 144.827,-65.7501"/>
</g>
<!-- Longitude180 -->
<g id="node7" class="node"><title>Longitude180</title>
<g id="a_node7"><a xlink:href="../../api/sunpy.coordinates.representation.Longitude180.html#sunpy.coordinates.representation.Longitude180" xlink:title="Quantity class that represents Longitude." target="_top">
<polygon fill="none" stroke="black" stroke-width="0.5" points="1014,-18.5 932,-18.5 932,0.5 1014,0.5 1014,-18.5"/>
<text text-anchor="middle" x="973" y="-6.5" font-family="Vera Sans, DejaVu Sans, Liberation Sans, Arial, Helvetica, sans" font-size="10.00">Longitude180</text>
</a>
</g>
</g>
<!-- Longitude&#45;&gt;Longitude180 -->
<g id="edge5" class="edge"><title>Longitude&#45;&gt;Longitude180</title>
<path fill="none" stroke="black" stroke-width="0.5" d="M831.148,-9C857.87,-9 896.718,-9 926.851,-9"/>
<polygon fill="black" stroke="black" stroke-width="0.5" points="926.989,-10.7501 931.989,-9 926.989,-7.2501 926.989,-10.7501"/>
</g>
<!-- Quantity -->
<g id="node8" class="node"><title>Quantity</title>
<g id="a_node8"><a xlink:title="A `~astropy.units.Quantity` represents a number with some associated unit.">
<polygon fill="none" stroke="black" stroke-width="0.5" points="266.5,-18.5 209.5,-18.5 209.5,0.5 266.5,0.5 266.5,-18.5"/>
<text text-anchor="middle" x="238" y="-6.5" font-family="Vera Sans, DejaVu Sans, Liberation Sans, Arial, Helvetica, sans" font-size="10.00">Quantity</text>
</a>
</g>
</g>
<!-- Quantity&#45;&gt;SpecificTypeQuantity -->
<g id="edge7" class="edge"><title>Quantity&#45;&gt;SpecificTypeQuantity</title>
<path fill="none" stroke="black" stroke-width="0.5" d="M266.731,-9C290.689,-9 326.194,-9 356.895,-9"/>
<polygon fill="black" stroke="black" stroke-width="0.5" points="357.171,-10.7501 362.171,-9 357.171,-7.25009 357.171,-10.7501"/>
</g>
<!-- ndarray -->
<g id="node9" class="node"><title>ndarray</title>
<g id="a_node9"><a xlink:title="ndarray(shape, dtype=float, buffer=None, offset=0,">
<polygon fill="none" stroke="black" stroke-width="0.5" points="84,-18.5 30,-18.5 30,0.5 84,0.5 84,-18.5"/>
<text text-anchor="middle" x="57" y="-6.5" font-family="Vera Sans, DejaVu Sans, Liberation Sans, Arial, Helvetica, sans" font-size="10.00">ndarray</text>
</a>
</g>
</g>
<!-- ndarray&#45;&gt;Quantity -->
<g id="edge6" class="edge"><title>ndarray&#45;&gt;Quantity</title>
<path fill="none" stroke="black" stroke-width="0.5" d="M84.0281,-9C115.782,-9 169.496,-9 204.089,-9"/>
<polygon fill="black" stroke="black" stroke-width="0.5" points="204.47,-10.7501 209.47,-9 204.47,-7.25009 204.47,-10.7501"/>
</g>
<!-- SphericalWrap180Representation -->
<g id="node11" class="node"><title>SphericalWrap180Representation</title>
<g id="a_node11"><a xlink:href="../../api/sunpy.coordinates.representation.SphericalWrap180Representation.html#sunpy.coordinates.representation.SphericalWrap180Representation" xlink:title="Representation of points in 3D Spherical coordinates." target="_top">
<polygon fill="none" stroke="black" stroke-width="0.5" points="886,-101.5 712,-101.5 712,-82.5 886,-82.5 886,-101.5"/>
<text text-anchor="middle" x="799" y="-89.5" font-family="Vera Sans, DejaVu Sans, Liberation Sans, Arial, Helvetica, sans" font-size="10.00">SphericalWrap180Representation</text>
</a>
</g>
</g>
<!-- SphericalRepresentation&#45;&gt;SphericalWrap180Representation -->
<g id="edge9" class="edge"><title>SphericalRepresentation&#45;&gt;SphericalWrap180Representation</title>
<path fill="none" stroke="black" stroke-width="0.5" d="M656.781,-92C672.659,-92 689.909,-92 706.723,-92"/>
<polygon fill="black" stroke="black" stroke-width="0.5" points="706.925,-93.7501 711.925,-92 706.925,-90.2501 706.925,-93.7501"/>
</g>
<!-- UnitSphericalWrap180Representation -->
<g id="node13" class="node"><title>UnitSphericalWrap180Representation</title>
<g id="a_node13"><a xlink:href="../../api/sunpy.coordinates.representation.UnitSphericalWrap180Representation.html#sunpy.coordinates.representation.UnitSphericalWrap180Representation" xlink:title="Representation of points in 3D Spherical coordinates." target="_top">
<polygon fill="none" stroke="black" stroke-width="0.5" points="896,-64.5 702,-64.5 702,-45.5 896,-45.5 896,-64.5"/>
<text text-anchor="middle" x="799" y="-52.5" font-family="Vera Sans, DejaVu Sans, Liberation Sans, Arial, Helvetica, sans" font-size="10.00">UnitSphericalWrap180Representation</text>
</a>
</g>
</g>
<!-- UnitSphericalRepresentation&#45;&gt;UnitSphericalWrap180Representation -->
<g id="edge11" class="edge"><title>UnitSphericalRepresentation&#45;&gt;UnitSphericalWrap180Representation</title>
<path fill="none" stroke="black" stroke-width="0.5" d="M666.024,-55C676.067,-55 686.498,-55 696.896,-55"/>
<polygon fill="black" stroke="black" stroke-width="0.5" points="696.996,-56.7501 701.996,-55 696.996,-53.2501 696.996,-56.7501"/>
</g>
</g>
</svg>
