<?xml version="1.0" encoding="UTF-8" standalone="no"?>
<!DOCTYPE svg PUBLIC "-//W3C//DTD SVG 1.1//EN"
 "http://www.w3.org/Graphics/SVG/1.1/DTD/svg11.dtd">
<!-- Generated by graphviz version 2.36.0 (20140111.2315)
 -->
<!-- Title: inheritancec0188b0f6e Pages: 1 -->
<svg width="576pt" height="95pt"
 viewBox="0.00 0.00 576.00 94.74" xmlns="http://www.w3.org/2000/svg" xmlns:xlink="http://www.w3.org/1999/xlink">
<g id="graph0" class="graph" transform="scale(0.947368 0.947368) rotate(0) translate(4 96)">
<title>inheritancec0188b0f6e</title>
<polygon fill="white" stroke="none" points="-4,4 -4,-96 604,-96 604,4 -4,4"/>
<!-- BaseCoordinateFrame -->
<g id="node1" class="node"><title>BaseCoordinateFrame</title>
<g id="a_node1"><a xlink:title="The base class for coordinate frames.">
<polygon fill="none" stroke="black" stroke-width="0.5" points="273.5,-55.5 150.5,-55.5 150.5,-36.5 273.5,-36.5 273.5,-55.5"/>
<text text-anchor="middle" x="212" y="-43.5" font-family="Vera Sans, DejaVu Sans, Liberation Sans, Arial, Helvetica, sans" font-size="10.00">BaseCoordinateFrame</text>
</a>
</g>
</g>
<!-- Heliocentric -->
<g id="node3" class="node"><title>Heliocentric</title>
<g id="a_node3"><a xlink:href="../../api/sunpy.coordinates.frames.Heliocentric.html#sunpy.coordinates.frames.Heliocentric" xlink:title="A coordinate or frame in the Heliocentric system." target="_top">
<polygon fill="none" stroke="black" stroke-width="0.5" points="410.5,-92.5 337.5,-92.5 337.5,-73.5 410.5,-73.5 410.5,-92.5"/>
<text text-anchor="middle" x="374" y="-80.5" font-family="Vera Sans, DejaVu Sans, Liberation Sans, Arial, Helvetica, sans" font-size="10.00">Heliocentric</text>
</a>
</g>
</g>
<!-- BaseCoordinateFrame&#45;&gt;Heliocentric -->
<g id="edge2" class="edge"><title>BaseCoordinateFrame&#45;&gt;Heliocentric</title>
<path fill="none" stroke="black" stroke-width="0.5" d="M253.375,-55.3367C277.488,-60.9129 308.027,-67.9751 332.213,-73.5681"/>
<polygon fill="black" stroke="black" stroke-width="0.5" points="332.008,-75.3166 337.273,-74.7382 332.796,-71.9066 332.008,-75.3166"/>
</g>
<!-- HeliographicStonyhurst -->
<g id="node5" class="node"><title>HeliographicStonyhurst</title>
<g id="a_node5"><a xlink:href="../../api/sunpy.coordinates.frames.HeliographicStonyhurst.html#sunpy.coordinates.frames.HeliographicStonyhurst" xlink:title="A coordinate or frame in the Stonyhurst Heliographic" target="_top">
<polygon fill="none" stroke="black" stroke-width="0.5" points="438,-55.5 310,-55.5 310,-36.5 438,-36.5 438,-55.5"/>
<text text-anchor="middle" x="374" y="-43.5" font-family="Vera Sans, DejaVu Sans, Liberation Sans, Arial, Helvetica, sans" font-size="10.00">HeliographicStonyhurst</text>
</a>
</g>
</g>
<!-- BaseCoordinateFrame&#45;&gt;HeliographicStonyhurst -->
<g id="edge4" class="edge"><title>BaseCoordinateFrame&#45;&gt;HeliographicStonyhurst</title>
<path fill="none" stroke="black" stroke-width="0.5" d="M273.946,-46C284.039,-46 294.563,-46 304.821,-46"/>
<polygon fill="black" stroke="black" stroke-width="0.5" points="304.833,-47.7501 309.833,-46 304.833,-44.2501 304.833,-47.7501"/>
</g>
<!-- Helioprojective -->
<g id="node6" class="node"><title>Helioprojective</title>
<g id="a_node6"><a xlink:href="../../api/sunpy.coordinates.frames.Helioprojective.html#sunpy.coordinates.frames.Helioprojective" xlink:title="A coordinate or frame in the Helioprojective (Cartesian) system." target="_top">
<polygon fill="none" stroke="black" stroke-width="0.5" points="417.5,-18.5 330.5,-18.5 330.5,0.5 417.5,0.5 417.5,-18.5"/>
<text text-anchor="middle" x="374" y="-6.5" font-family="Vera Sans, DejaVu Sans, Liberation Sans, Arial, Helvetica, sans" font-size="10.00">Helioprojective</text>
</a>
</g>
</g>
<!-- BaseCoordinateFrame&#45;&gt;Helioprojective -->
<g id="edge5" class="edge"><title>BaseCoordinateFrame&#45;&gt;Helioprojective</title>
<path fill="none" stroke="black" stroke-width="0.5" d="M253.375,-36.6633C276.105,-31.4069 304.546,-24.83 327.992,-19.4081"/>
<polygon fill="black" stroke="black" stroke-width="0.5" points="328.438,-21.1011 332.916,-18.2695 327.65,-17.6911 328.438,-21.1011"/>
</g>
<!-- ShapedLikeNDArray -->
<g id="node2" class="node"><title>ShapedLikeNDArray</title>
<g id="a_node2"><a xlink:title="Mixin class to provide shape&#45;changing methods.">
<polygon fill="none" stroke="black" stroke-width="0.5" points="113.5,-55.5 0.5,-55.5 0.5,-36.5 113.5,-36.5 113.5,-55.5"/>
<text text-anchor="middle" x="57" y="-43.5" font-family="Vera Sans, DejaVu Sans, Liberation Sans, Arial, Helvetica, sans" font-size="10.00">ShapedLikeNDArray</text>
</a>
</g>
</g>
<!-- ShapedLikeNDArray&#45;&gt;BaseCoordinateFrame -->
<g id="edge1" class="edge"><title>ShapedLikeNDArray&#45;&gt;BaseCoordinateFrame</title>
<path fill="none" stroke="black" stroke-width="0.5" d="M113.669,-46C123.949,-46 134.772,-46 145.315,-46"/>
<polygon fill="black" stroke="black" stroke-width="0.5" points="145.465,-47.7501 150.465,-46 145.465,-44.2501 145.465,-47.7501"/>
</g>
<!-- HeliographicCarrington -->
<g id="node4" class="node"><title>HeliographicCarrington</title>
<g id="a_node4"><a xlink:href="../../api/sunpy.coordinates.frames.HeliographicCarrington.html#sunpy.coordinates.frames.HeliographicCarrington" xlink:title="A coordinate or frame in the Carrington Heliographic" target="_top">
<polygon fill="none" stroke="black" stroke-width="0.5" points="600,-55.5 474,-55.5 474,-36.5 600,-36.5 600,-55.5"/>
<text text-anchor="middle" x="537" y="-43.5" font-family="Vera Sans, DejaVu Sans, Liberation Sans, Arial, Helvetica, sans" font-size="10.00">HeliographicCarrington</text>
</a>
</g>
</g>
<!-- HeliographicStonyhurst&#45;&gt;HeliographicCarrington -->
<g id="edge3" class="edge"><title>HeliographicStonyhurst&#45;&gt;HeliographicCarrington</title>
<path fill="none" stroke="black" stroke-width="0.5" d="M438.169,-46C448.147,-46 458.497,-46 468.567,-46"/>
<polygon fill="black" stroke="black" stroke-width="0.5" points="468.805,-47.7501 473.804,-46 468.804,-44.2501 468.805,-47.7501"/>
</g>
<!-- NorthOffsetFrame -->
<g id="node7" class="node"><title>NorthOffsetFrame</title>
<g id="a_node7"><a xlink:href="../../api/sunpy.coordinates.offset_frame.NorthOffsetFrame.html#sunpy.coordinates.offset_frame.NorthOffsetFrame" xlink:title="A frame which is relative to some position and another frame. Based on" target="_top">
<polygon fill="none" stroke="black" stroke-width="0.5" points="108,-92.5 6,-92.5 6,-73.5 108,-73.5 108,-92.5"/>
<text text-anchor="middle" x="57" y="-80.5" font-family="Vera Sans, DejaVu Sans, Liberation Sans, Arial, Helvetica, sans" font-size="10.00">NorthOffsetFrame</text>
</a>
</g>
</g>
</g>
</svg>
