<?xml version="1.0" encoding="UTF-8" standalone="no"?>
<!DOCTYPE svg PUBLIC "-//W3C//DTD SVG 1.1//EN"
 "http://www.w3.org/Graphics/SVG/1.1/DTD/svg11.dtd">
<!-- Generated by graphviz version 2.36.0 (20140111.2315)
 -->
<!-- Title: inheritance045311815d Pages: 1 -->
<svg width="346pt" height="26pt"
 viewBox="0.00 0.00 346.00 26.00" xmlns="http://www.w3.org/2000/svg" xmlns:xlink="http://www.w3.org/1999/xlink">
<g id="graph0" class="graph" transform="scale(1 1) rotate(0) translate(4 22)">
<title>inheritance045311815d</title>
<polygon fill="white" stroke="none" points="-4,4 -4,-22 342,-22 342,4 -4,4"/>
<!-- LinearTimeSpectrogram -->
<g id="node1" class="node"><title>LinearTimeSpectrogram</title>
<g id="a_node1"><a xlink:href="../../api/sunpy.spectra.spectrogram.LinearTimeSpectrogram.html#sunpy.spectra.spectrogram.LinearTimeSpectrogram" xlink:title=".. deprecated:: 0.8" target="_top">
<polygon fill="none" stroke="black" stroke-width="0.5" points="338,-18.5 206,-18.5 206,0.5 338,0.5 338,-18.5"/>
<text text-anchor="middle" x="272" y="-6.5" font-family="Vera Sans, DejaVu Sans, Liberation Sans, Arial, Helvetica, sans" font-size="10.00">LinearTimeSpectrogram</text>
</a>
</g>
</g>
<!-- Spectrogram -->
<g id="node2" class="node"><title>Spectrogram</title>
<g id="a_node2"><a xlink:href="../../api/sunpy.spectra.spectrogram.Spectrogram.html#sunpy.spectra.spectrogram.Spectrogram" xlink:title=".. deprecated:: 0.8" target="_top">
<polygon fill="none" stroke="black" stroke-width="0.5" points="170,-18.5 90,-18.5 90,0.5 170,0.5 170,-18.5"/>
<text text-anchor="middle" x="130" y="-6.5" font-family="Vera Sans, DejaVu Sans, Liberation Sans, Arial, Helvetica, sans" font-size="10.00">Spectrogram</text>
</a>
</g>
</g>
<!-- Spectrogram&#45;&gt;LinearTimeSpectrogram -->
<g id="edge1" class="edge"><title>Spectrogram&#45;&gt;LinearTimeSpectrogram</title>
<path fill="none" stroke="black" stroke-width="0.5" d="M170.37,-9C179.892,-9 190.356,-9 200.825,-9"/>
<polygon fill="black" stroke="black" stroke-width="0.5" points="200.961,-10.7501 205.961,-9 200.961,-7.2501 200.961,-10.7501"/>
</g>
<!-- Parent -->
<g id="node3" class="node"><title>Parent</title>
<g id="a_node3"><a xlink:href="../../api/sunpy.util.create.Parent.html#sunpy.util.create.Parent" xlink:title="Parent" target="_top">
<polygon fill="none" stroke="black" stroke-width="0.5" points="54,-18.5 0,-18.5 0,0.5 54,0.5 54,-18.5"/>
<text text-anchor="middle" x="27" y="-6.5" font-family="Vera Sans, DejaVu Sans, Liberation Sans, Arial, Helvetica, sans" font-size="10.00">Parent</text>
</a>
</g>
</g>
<!-- Parent&#45;&gt;Spectrogram -->
<g id="edge2" class="edge"><title>Parent&#45;&gt;Spectrogram</title>
<path fill="none" stroke="black" stroke-width="0.5" d="M54.01,-9C63.3526,-9 74.1707,-9 84.6325,-9"/>
<polygon fill="black" stroke="black" stroke-width="0.5" points="84.7317,-10.7501 89.7316,-9 84.7316,-7.2501 84.7317,-10.7501"/>
</g>
</g>
</svg>
