<?xml version="1.0" encoding="UTF-8" standalone="no"?>
<!DOCTYPE svg PUBLIC "-//W3C//DTD SVG 1.1//EN"
 "http://www.w3.org/Graphics/SVG/1.1/DTD/svg11.dtd">
<!-- Generated by graphviz version 2.36.0 (20140111.2315)
 -->
<!-- Title: inheritance587decf5ba Pages: 1 -->
<svg width="230pt" height="248pt"
 viewBox="0.00 0.00 230.00 248.00" xmlns="http://www.w3.org/2000/svg" xmlns:xlink="http://www.w3.org/1999/xlink">
<g id="graph0" class="graph" transform="scale(1 1) rotate(0) translate(4 244)">
<title>inheritance587decf5ba</title>
<polygon fill="white" stroke="none" points="-4,4 -4,-244 226,-244 226,4 -4,4"/>
<!-- EVEClient -->
<g id="node1" class="node"><title>EVEClient</title>
<g id="a_node1"><a xlink:href="../../api/sunpy.net.dataretriever.sources.EVEClient.html#sunpy.net.dataretriever.sources.EVEClient" xlink:title="This EVEClient is for the Level 0C data" target="_top">
<polygon fill="none" stroke="black" stroke-width="0.5" points="200,-240.5 138,-240.5 138,-221.5 200,-221.5 200,-240.5"/>
<text text-anchor="middle" x="169" y="-228.5" font-family="Vera Sans, DejaVu Sans, Liberation Sans, Arial, Helvetica, sans" font-size="10.00">EVEClient</text>
</a>
</g>
</g>
<!-- GenericClient -->
<g id="node2" class="node"><title>GenericClient</title>
<g id="a_node2"><a xlink:href="../../api/sunpy.net.dataretriever.GenericClient.html#sunpy.net.dataretriever.GenericClient" xlink:title="Base class for simple web clients for the data retriever module. This class" target="_top">
<polygon fill="none" stroke="black" stroke-width="0.5" points="80,-129.5 0,-129.5 0,-110.5 80,-110.5 80,-129.5"/>
<text text-anchor="middle" x="40" y="-117.5" font-family="Vera Sans, DejaVu Sans, Liberation Sans, Arial, Helvetica, sans" font-size="10.00">GenericClient</text>
</a>
</g>
</g>
<!-- GenericClient&#45;&gt;EVEClient -->
<g id="edge1" class="edge"><title>GenericClient&#45;&gt;EVEClient</title>
<path fill="none" stroke="black" stroke-width="0.5" d="M46.3353,-129.496C57.1529,-147.937 83.4299,-188.818 116,-212 121.078,-215.614 126.919,-218.616 132.812,-221.085"/>
<polygon fill="black" stroke="black" stroke-width="0.5" points="132.465,-222.829 137.758,-223.034 133.748,-219.573 132.465,-222.829"/>
</g>
<!-- GOESClient -->
<g id="node3" class="node"><title>GOESClient</title>
<g id="a_node3"><a xlink:href="../../api/sunpy.net.dataretriever.sources.GOESClient.html#sunpy.net.dataretriever.sources.GOESClient" xlink:title="GOESClient" target="_top">
<polygon fill="none" stroke="black" stroke-width="0.5" points="204.5,-203.5 133.5,-203.5 133.5,-184.5 204.5,-184.5 204.5,-203.5"/>
<text text-anchor="middle" x="169" y="-191.5" font-family="Vera Sans, DejaVu Sans, Liberation Sans, Arial, Helvetica, sans" font-size="10.00">GOESClient</text>
</a>
</g>
</g>
<!-- GenericClient&#45;&gt;GOESClient -->
<g id="edge2" class="edge"><title>GenericClient&#45;&gt;GOESClient</title>
<path fill="none" stroke="black" stroke-width="0.5" d="M52.0172,-129.645C66.0759,-141.57 91.5155,-161.892 116,-175 121.362,-177.871 127.251,-180.483 133.078,-182.79"/>
<polygon fill="black" stroke="black" stroke-width="0.5" points="132.65,-184.5 137.945,-184.654 133.902,-181.231 132.65,-184.5"/>
</g>
<!-- LYRAClient -->
<g id="node4" class="node"><title>LYRAClient</title>
<g id="a_node4"><a xlink:href="../../api/sunpy.net.dataretriever.sources.LYRAClient.html#sunpy.net.dataretriever.sources.LYRAClient" xlink:title="LYRAClient" target="_top">
<polygon fill="none" stroke="black" stroke-width="0.5" points="201.5,-166.5 136.5,-166.5 136.5,-147.5 201.5,-147.5 201.5,-166.5"/>
<text text-anchor="middle" x="169" y="-154.5" font-family="Vera Sans, DejaVu Sans, Liberation Sans, Arial, Helvetica, sans" font-size="10.00">LYRAClient</text>
</a>
</g>
</g>
<!-- GenericClient&#45;&gt;LYRAClient -->
<g id="edge3" class="edge"><title>GenericClient&#45;&gt;LYRAClient</title>
<path fill="none" stroke="black" stroke-width="0.5" d="M73.0475,-129.337C90.7795,-134.503 112.889,-140.944 131.311,-146.311"/>
<polygon fill="black" stroke="black" stroke-width="0.5" points="131.113,-148.076 136.403,-147.794 132.092,-144.716 131.113,-148.076"/>
</g>
<!-- NOAAIndicesClient -->
<g id="node5" class="node"><title>NOAAIndicesClient</title>
<g id="a_node5"><a xlink:href="../../api/sunpy.net.dataretriever.sources.NOAAIndicesClient.html#sunpy.net.dataretriever.sources.NOAAIndicesClient" xlink:title="NOAAIndicesClient" target="_top">
<polygon fill="none" stroke="black" stroke-width="0.5" points="221.5,-129.5 116.5,-129.5 116.5,-110.5 221.5,-110.5 221.5,-129.5"/>
<text text-anchor="middle" x="169" y="-117.5" font-family="Vera Sans, DejaVu Sans, Liberation Sans, Arial, Helvetica, sans" font-size="10.00">NOAAIndicesClient</text>
</a>
</g>
</g>
<!-- GenericClient&#45;&gt;NOAAIndicesClient -->
<g id="edge4" class="edge"><title>GenericClient&#45;&gt;NOAAIndicesClient</title>
<path fill="none" stroke="black" stroke-width="0.5" d="M80.1405,-120C89.9112,-120 100.589,-120 111.029,-120"/>
<polygon fill="black" stroke="black" stroke-width="0.5" points="111.13,-121.75 116.13,-120 111.13,-118.25 111.13,-121.75"/>
</g>
<!-- NOAAPredictClient -->
<g id="node6" class="node"><title>NOAAPredictClient</title>
<g id="a_node6"><a xlink:href="../../api/sunpy.net.dataretriever.sources.NOAAPredictClient.html#sunpy.net.dataretriever.sources.NOAAPredictClient" xlink:title="NOAAPredictClient" target="_top">
<polygon fill="none" stroke="black" stroke-width="0.5" points="221.5,-92.5 116.5,-92.5 116.5,-73.5 221.5,-73.5 221.5,-92.5"/>
<text text-anchor="middle" x="169" y="-80.5" font-family="Vera Sans, DejaVu Sans, Liberation Sans, Arial, Helvetica, sans" font-size="10.00">NOAAPredictClient</text>
</a>
</g>
</g>
<!-- GenericClient&#45;&gt;NOAAPredictClient -->
<g id="edge5" class="edge"><title>GenericClient&#45;&gt;NOAAPredictClient</title>
<path fill="none" stroke="black" stroke-width="0.5" d="M73.0475,-110.663C90.6452,-105.536 112.555,-99.1534 130.892,-93.811"/>
<polygon fill="black" stroke="black" stroke-width="0.5" points="131.652,-95.4124 135.963,-92.3337 130.673,-92.0521 131.652,-95.4124"/>
</g>
<!-- NoRHClient -->
<g id="node7" class="node"><title>NoRHClient</title>
<g id="a_node7"><a xlink:href="../../api/sunpy.net.dataretriever.sources.NoRHClient.html#sunpy.net.dataretriever.sources.NoRHClient" xlink:title="NoRHClient" target="_top">
<polygon fill="none" stroke="black" stroke-width="0.5" points="204.5,-55.5 133.5,-55.5 133.5,-36.5 204.5,-36.5 204.5,-55.5"/>
<text text-anchor="middle" x="169" y="-43.5" font-family="Vera Sans, DejaVu Sans, Liberation Sans, Arial, Helvetica, sans" font-size="10.00">NoRHClient</text>
</a>
</g>
</g>
<!-- GenericClient&#45;&gt;NoRHClient -->
<g id="edge6" class="edge"><title>GenericClient&#45;&gt;NoRHClient</title>
<path fill="none" stroke="black" stroke-width="0.5" d="M52.0172,-110.355C66.0759,-98.43 91.5155,-78.1079 116,-65 121.362,-62.1293 127.251,-59.5168 133.078,-57.2104"/>
<polygon fill="black" stroke="black" stroke-width="0.5" points="133.902,-58.7687 137.945,-55.346 132.65,-55.5003 133.902,-58.7687"/>
</g>
<!-- RHESSIClient -->
<g id="node8" class="node"><title>RHESSIClient</title>
<g id="a_node8"><a xlink:href="../../api/sunpy.net.dataretriever.sources.RHESSIClient.html#sunpy.net.dataretriever.sources.RHESSIClient" xlink:title="RHESSIClient" target="_top">
<polygon fill="none" stroke="black" stroke-width="0.5" points="208.5,-18.5 129.5,-18.5 129.5,0.5 208.5,0.5 208.5,-18.5"/>
<text text-anchor="middle" x="169" y="-6.5" font-family="Vera Sans, DejaVu Sans, Liberation Sans, Arial, Helvetica, sans" font-size="10.00">RHESSIClient</text>
</a>
</g>
</g>
<!-- GenericClient&#45;&gt;RHESSIClient -->
<g id="edge7" class="edge"><title>GenericClient&#45;&gt;RHESSIClient</title>
<path fill="none" stroke="black" stroke-width="0.5" d="M46.3353,-110.504C57.1529,-92.0627 83.4299,-51.1823 116,-28 120.111,-25.0739 124.723,-22.5489 129.457,-20.3835"/>
<polygon fill="black" stroke="black" stroke-width="0.5" points="130.316,-21.9191 134.218,-18.3364 128.934,-18.7037 130.316,-21.9191"/>
</g>
</g>
</svg>
