<?xml version="1.0" encoding="UTF-8" standalone="no"?>
<!DOCTYPE svg PUBLIC "-//W3C//DTD SVG 1.1//EN"
 "http://www.w3.org/Graphics/SVG/1.1/DTD/svg11.dtd">
<!-- Generated by graphviz version 2.36.0 (20140111.2315)
 -->
<!-- Title: inheritance83428646f1 Pages: 1 -->
<svg width="340pt" height="174pt"
 viewBox="0.00 0.00 340.00 174.00" xmlns="http://www.w3.org/2000/svg" xmlns:xlink="http://www.w3.org/1999/xlink">
<g id="graph0" class="graph" transform="scale(1 1) rotate(0) translate(4 170)">
<title>inheritance83428646f1</title>
<polygon fill="white" stroke="none" points="-4,4 -4,-170 336,-170 336,4 -4,4"/>
<!-- Attr -->
<g id="node1" class="node"><title>Attr</title>
<g id="a_node1"><a xlink:title="This is the base for all attributes.">
<polygon fill="none" stroke="black" stroke-width="0.5" points="70,-92.5 16,-92.5 16,-73.5 70,-73.5 70,-92.5"/>
<text text-anchor="middle" x="43" y="-80.5" font-family="Vera Sans, DejaVu Sans, Liberation Sans, Arial, Helvetica, sans" font-size="10.00">Attr</text>
</a>
</g>
</g>
<!-- _VSOSimpleAttr -->
<g id="node3" class="node"><title>_VSOSimpleAttr</title>
<g id="a_node3"><a xlink:title="A _SimpleAttr is an attribute that is not composite, i.e. that only">
<polygon fill="none" stroke="black" stroke-width="0.5" points="216,-92.5 122,-92.5 122,-73.5 216,-73.5 216,-92.5"/>
<text text-anchor="middle" x="169" y="-80.5" font-family="Vera Sans, DejaVu Sans, Liberation Sans, Arial, Helvetica, sans" font-size="10.00">_VSOSimpleAttr</text>
</a>
</g>
</g>
<!-- Attr&#45;&gt;_VSOSimpleAttr -->
<g id="edge6" class="edge"><title>Attr&#45;&gt;_VSOSimpleAttr</title>
<path fill="none" stroke="black" stroke-width="0.5" d="M70.2972,-83C83.7103,-83 100.505,-83 116.368,-83"/>
<polygon fill="black" stroke="black" stroke-width="0.5" points="116.706,-84.7501 121.706,-83 116.706,-81.2501 116.706,-84.7501"/>
</g>
<!-- Compression -->
<g id="node2" class="node"><title>Compression</title>
<g id="a_node2"><a xlink:href="../../api/sunpy.net.jsoc.Compression.html#sunpy.net.jsoc.Compression" xlink:title="Compression format for requested files." target="_top">
<polygon fill="none" stroke="black" stroke-width="0.5" points="332,-166.5 252,-166.5 252,-147.5 332,-147.5 332,-166.5"/>
<text text-anchor="middle" x="292" y="-154.5" font-family="Vera Sans, DejaVu Sans, Liberation Sans, Arial, Helvetica, sans" font-size="10.00">Compression</text>
</a>
</g>
</g>
<!-- _VSOSimpleAttr&#45;&gt;Compression -->
<g id="edge1" class="edge"><title>_VSOSimpleAttr&#45;&gt;Compression</title>
<path fill="none" stroke="black" stroke-width="0.5" d="M182.714,-92.3293C198.541,-103.753 226.592,-123.382 252,-138 256.407,-140.535 261.201,-143.054 265.872,-145.39"/>
<polygon fill="black" stroke="black" stroke-width="0.5" points="265.224,-147.021 270.483,-147.658 266.769,-143.881 265.224,-147.021"/>
</g>
<!-- Notify -->
<g id="node6" class="node"><title>Notify</title>
<g id="a_node6"><a xlink:href="../../api/sunpy.net.jsoc.Notify.html#sunpy.net.jsoc.Notify" xlink:title="An email address to get a notification to when JSOC has staged your request" target="_top">
<polygon fill="none" stroke="black" stroke-width="0.5" points="319,-129.5 265,-129.5 265,-110.5 319,-110.5 319,-129.5"/>
<text text-anchor="middle" x="292" y="-117.5" font-family="Vera Sans, DejaVu Sans, Liberation Sans, Arial, Helvetica, sans" font-size="10.00">Notify</text>
</a>
</g>
</g>
<!-- _VSOSimpleAttr&#45;&gt;Notify -->
<g id="edge2" class="edge"><title>_VSOSimpleAttr&#45;&gt;Notify</title>
<path fill="none" stroke="black" stroke-width="0.5" d="M200.533,-92.3367C218.708,-97.8941 241.709,-104.927 259.97,-110.511"/>
<polygon fill="black" stroke="black" stroke-width="0.5" points="259.694,-112.257 264.987,-112.046 260.717,-108.91 259.694,-112.257"/>
</g>
<!-- Protocol -->
<g id="node7" class="node"><title>Protocol</title>
<g id="a_node7"><a xlink:href="../../api/sunpy.net.jsoc.Protocol.html#sunpy.net.jsoc.Protocol" xlink:title="The type of download to request one of" target="_top">
<polygon fill="none" stroke="black" stroke-width="0.5" points="320,-92.5 264,-92.5 264,-73.5 320,-73.5 320,-92.5"/>
<text text-anchor="middle" x="292" y="-80.5" font-family="Vera Sans, DejaVu Sans, Liberation Sans, Arial, Helvetica, sans" font-size="10.00">Protocol</text>
</a>
</g>
</g>
<!-- _VSOSimpleAttr&#45;&gt;Protocol -->
<g id="edge3" class="edge"><title>_VSOSimpleAttr&#45;&gt;Protocol</title>
<path fill="none" stroke="black" stroke-width="0.5" d="M216.09,-83C230.358,-83 245.762,-83 258.869,-83"/>
<polygon fill="black" stroke="black" stroke-width="0.5" points="258.959,-84.7501 263.959,-83 258.959,-81.2501 258.959,-84.7501"/>
</g>
<!-- Segment -->
<g id="node8" class="node"><title>Segment</title>
<g id="a_node8"><a xlink:href="../../api/sunpy.net.jsoc.Segment.html#sunpy.net.jsoc.Segment" xlink:title="Segments choose which files to download when there are more than" target="_top">
<polygon fill="none" stroke="black" stroke-width="0.5" points="322.5,-55.5 261.5,-55.5 261.5,-36.5 322.5,-36.5 322.5,-55.5"/>
<text text-anchor="middle" x="292" y="-43.5" font-family="Vera Sans, DejaVu Sans, Liberation Sans, Arial, Helvetica, sans" font-size="10.00">Segment</text>
</a>
</g>
</g>
<!-- _VSOSimpleAttr&#45;&gt;Segment -->
<g id="edge4" class="edge"><title>_VSOSimpleAttr&#45;&gt;Segment</title>
<path fill="none" stroke="black" stroke-width="0.5" d="M200.533,-73.6633C217.556,-68.4582 238.812,-61.9582 256.443,-56.567"/>
<polygon fill="black" stroke="black" stroke-width="0.5" points="257.043,-58.2135 261.313,-55.0779 256.02,-54.8665 257.043,-58.2135"/>
</g>
<!-- Series -->
<g id="node9" class="node"><title>Series</title>
<g id="a_node9"><a xlink:href="../../api/sunpy.net.jsoc.Series.html#sunpy.net.jsoc.Series" xlink:title="The JSOC Series to Download." target="_top">
<polygon fill="none" stroke="black" stroke-width="0.5" points="319,-18.5 265,-18.5 265,0.5 319,0.5 319,-18.5"/>
<text text-anchor="middle" x="292" y="-6.5" font-family="Vera Sans, DejaVu Sans, Liberation Sans, Arial, Helvetica, sans" font-size="10.00">Series</text>
</a>
</g>
</g>
<!-- _VSOSimpleAttr&#45;&gt;Series -->
<g id="edge5" class="edge"><title>_VSOSimpleAttr&#45;&gt;Series</title>
<path fill="none" stroke="black" stroke-width="0.5" d="M182.714,-73.6707C198.541,-62.247 226.592,-42.6176 252,-28 256.407,-25.4648 261.201,-22.9456 265.872,-20.6102"/>
<polygon fill="black" stroke="black" stroke-width="0.5" points="266.769,-22.1194 270.483,-18.3423 265.224,-18.9787 266.769,-22.1194"/>
</g>
<!-- JSOCClient -->
<g id="node4" class="node"><title>JSOCClient</title>
<g id="a_node4"><a xlink:href="../../api/sunpy.net.jsoc.JSOCClient.html#sunpy.net.jsoc.JSOCClient" xlink:title="This is a Client to the JSOC Data Export service." target="_top">
<polygon fill="none" stroke="black" stroke-width="0.5" points="76.5,-129.5 9.5,-129.5 9.5,-110.5 76.5,-110.5 76.5,-129.5"/>
<text text-anchor="middle" x="43" y="-117.5" font-family="Vera Sans, DejaVu Sans, Liberation Sans, Arial, Helvetica, sans" font-size="10.00">JSOCClient</text>
</a>
</g>
</g>
<!-- JSOCResponse -->
<g id="node5" class="node"><title>JSOCResponse</title>
<g id="a_node5"><a xlink:href="../../api/sunpy.net.jsoc.JSOCResponse.html#sunpy.net.jsoc.JSOCResponse" xlink:title="JSOCResponse" target="_top">
<polygon fill="none" stroke="black" stroke-width="0.5" points="86,-166.5 0,-166.5 0,-147.5 86,-147.5 86,-166.5"/>
<text text-anchor="middle" x="43" y="-154.5" font-family="Vera Sans, DejaVu Sans, Liberation Sans, Arial, Helvetica, sans" font-size="10.00">JSOCResponse</text>
</a>
</g>
</g>
</g>
</svg>
