<?xml version="1.0" encoding="UTF-8" standalone="no"?>
<!DOCTYPE svg PUBLIC "-//W3C//DTD SVG 1.1//EN"
 "http://www.w3.org/Graphics/SVG/1.1/DTD/svg11.dtd">
<!-- Generated by graphviz version 2.36.0 (20140111.2315)
 -->
<!-- Title: inheritance75e59cbd42 Pages: 1 -->
<svg width="498pt" height="63pt"
 viewBox="0.00 0.00 498.00 63.00" xmlns="http://www.w3.org/2000/svg" xmlns:xlink="http://www.w3.org/1999/xlink">
<g id="graph0" class="graph" transform="scale(1 1) rotate(0) translate(4 59)">
<title>inheritance75e59cbd42</title>
<polygon fill="white" stroke="none" points="-4,4 -4,-59 494,-59 494,4 -4,4"/>
<!-- CallistoSpectrogram -->
<g id="node1" class="node"><title>CallistoSpectrogram</title>
<g id="a_node1"><a xlink:href="../../api/sunpy.spectra.sources.CallistoSpectrogram.html#sunpy.spectra.sources.CallistoSpectrogram" xlink:title="Class used for dynamic spectra coming from the Callisto network." target="_top">
<polygon fill="none" stroke="black" stroke-width="0.5" points="489,-55.5 375,-55.5 375,-36.5 489,-36.5 489,-55.5"/>
<text text-anchor="middle" x="432" y="-43.5" font-family="Vera Sans, DejaVu Sans, Liberation Sans, Arial, Helvetica, sans" font-size="10.00">CallistoSpectrogram</text>
</a>
</g>
</g>
<!-- LinearTimeSpectrogram -->
<g id="node2" class="node"><title>LinearTimeSpectrogram</title>
<g id="a_node2"><a xlink:href="../../api/sunpy.spectra.spectrogram.LinearTimeSpectrogram.html#sunpy.spectra.spectrogram.LinearTimeSpectrogram" xlink:title=".. deprecated:: 0.8" target="_top">
<polygon fill="none" stroke="black" stroke-width="0.5" points="338,-36.5 206,-36.5 206,-17.5 338,-17.5 338,-36.5"/>
<text text-anchor="middle" x="272" y="-24.5" font-family="Vera Sans, DejaVu Sans, Liberation Sans, Arial, Helvetica, sans" font-size="10.00">LinearTimeSpectrogram</text>
</a>
</g>
</g>
<!-- LinearTimeSpectrogram&#45;&gt;CallistoSpectrogram -->
<g id="edge1" class="edge"><title>LinearTimeSpectrogram&#45;&gt;CallistoSpectrogram</title>
<path fill="none" stroke="black" stroke-width="0.5" d="M338.177,-34.8377C348.55,-36.0851 359.252,-37.372 369.536,-38.6087"/>
<polygon fill="black" stroke="black" stroke-width="0.5" points="369.374,-40.3518 374.547,-39.2114 369.792,-36.8769 369.374,-40.3518"/>
</g>
<!-- SWavesSpectrogram -->
<g id="node5" class="node"><title>SWavesSpectrogram</title>
<g id="a_node5"><a xlink:href="../../api/sunpy.spectra.sources.SWavesSpectrogram.html#sunpy.spectra.sources.SWavesSpectrogram" xlink:title="SWavesSpectrogram" target="_top">
<polygon fill="none" stroke="black" stroke-width="0.5" points="490,-18.5 374,-18.5 374,0.5 490,0.5 490,-18.5"/>
<text text-anchor="middle" x="432" y="-6.5" font-family="Vera Sans, DejaVu Sans, Liberation Sans, Arial, Helvetica, sans" font-size="10.00">SWavesSpectrogram</text>
</a>
</g>
</g>
<!-- LinearTimeSpectrogram&#45;&gt;SWavesSpectrogram -->
<g id="edge3" class="edge"><title>LinearTimeSpectrogram&#45;&gt;SWavesSpectrogram</title>
<path fill="none" stroke="black" stroke-width="0.5" d="M338.177,-19.5748C348.166,-18.4367 358.46,-17.264 368.392,-16.1325"/>
<polygon fill="black" stroke="black" stroke-width="0.5" points="368.78,-17.8498 373.55,-15.545 368.384,-14.3722 368.78,-17.8498"/>
</g>
<!-- Spectrogram -->
<g id="node3" class="node"><title>Spectrogram</title>
<g id="a_node3"><a xlink:href="../../api/sunpy.spectra.spectrogram.Spectrogram.html#sunpy.spectra.spectrogram.Spectrogram" xlink:title=".. deprecated:: 0.8" target="_top">
<polygon fill="none" stroke="black" stroke-width="0.5" points="170,-36.5 90,-36.5 90,-17.5 170,-17.5 170,-36.5"/>
<text text-anchor="middle" x="130" y="-24.5" font-family="Vera Sans, DejaVu Sans, Liberation Sans, Arial, Helvetica, sans" font-size="10.00">Spectrogram</text>
</a>
</g>
</g>
<!-- Spectrogram&#45;&gt;LinearTimeSpectrogram -->
<g id="edge2" class="edge"><title>Spectrogram&#45;&gt;LinearTimeSpectrogram</title>
<path fill="none" stroke="black" stroke-width="0.5" d="M170.37,-27C179.892,-27 190.356,-27 200.825,-27"/>
<polygon fill="black" stroke="black" stroke-width="0.5" points="200.961,-28.7501 205.961,-27 200.961,-25.2501 200.961,-28.7501"/>
</g>
<!-- Parent -->
<g id="node4" class="node"><title>Parent</title>
<g id="a_node4"><a xlink:href="../../api/sunpy.util.create.Parent.html#sunpy.util.create.Parent" xlink:title="Parent" target="_top">
<polygon fill="none" stroke="black" stroke-width="0.5" points="54,-36.5 0,-36.5 0,-17.5 54,-17.5 54,-36.5"/>
<text text-anchor="middle" x="27" y="-24.5" font-family="Vera Sans, DejaVu Sans, Liberation Sans, Arial, Helvetica, sans" font-size="10.00">Parent</text>
</a>
</g>
</g>
<!-- Parent&#45;&gt;Spectrogram -->
<g id="edge4" class="edge"><title>Parent&#45;&gt;Spectrogram</title>
<path fill="none" stroke="black" stroke-width="0.5" d="M54.01,-27C63.3526,-27 74.1707,-27 84.6325,-27"/>
<polygon fill="black" stroke="black" stroke-width="0.5" points="84.7317,-28.7501 89.7316,-27 84.7316,-25.2501 84.7317,-28.7501"/>
</g>
</g>
</svg>
