<?xml version="1.0" encoding="UTF-8" standalone="no"?>
<!DOCTYPE svg PUBLIC "-//W3C//DTD SVG 1.1//EN"
 "http://www.w3.org/Graphics/SVG/1.1/DTD/svg11.dtd">
<!-- Generated by graphviz version 2.36.0 (20140111.2315)
 -->
<!-- Title: inheritance5c69ee4d71 Pages: 1 -->
<svg width="516pt" height="64pt"
 viewBox="0.00 0.00 516.00 64.00" xmlns="http://www.w3.org/2000/svg" xmlns:xlink="http://www.w3.org/1999/xlink">
<g id="graph0" class="graph" transform="scale(1 1) rotate(0) translate(4 60)">
<title>inheritance5c69ee4d71</title>
<polygon fill="white" stroke="none" points="-4,4 -4,-60 512,-60 512,4 -4,4"/>
<!-- ArrayAnimator -->
<g id="node1" class="node"><title>ArrayAnimator</title>
<g id="a_node1"><a xlink:title="Create a matplotlib backend independent data explorer">
<polygon fill="none" stroke="black" stroke-width="0.5" points="230,-36.5 144,-36.5 144,-17.5 230,-17.5 230,-36.5"/>
<text text-anchor="middle" x="187" y="-24.5" font-family="Vera Sans, DejaVu Sans, Liberation Sans, Arial, Helvetica, sans" font-size="10.00">ArrayAnimator</text>
</a>
</g>
</g>
<!-- ImageAnimator -->
<g id="node3" class="node"><title>ImageAnimator</title>
<g id="a_node3"><a xlink:href="../../api/sunpy.visualization.imageanimator.ImageAnimator.html#sunpy.visualization.imageanimator.ImageAnimator" xlink:title="Create a matplotlib backend independent data explorer for 2D images." target="_top">
<polygon fill="none" stroke="black" stroke-width="0.5" points="357.5,-55.5 266.5,-55.5 266.5,-36.5 357.5,-36.5 357.5,-55.5"/>
<text text-anchor="middle" x="312" y="-43.5" font-family="Vera Sans, DejaVu Sans, Liberation Sans, Arial, Helvetica, sans" font-size="10.00">ImageAnimator</text>
</a>
</g>
</g>
<!-- ArrayAnimator&#45;&gt;ImageAnimator -->
<g id="edge2" class="edge"><title>ArrayAnimator&#45;&gt;ImageAnimator</title>
<path fill="none" stroke="black" stroke-width="0.5" d="M230.33,-33.5387C240.362,-35.0885 251.152,-36.7551 261.473,-38.3494"/>
<polygon fill="black" stroke="black" stroke-width="0.5" points="261.288,-40.0916 266.496,-39.1255 261.822,-36.6326 261.288,-40.0916"/>
</g>
<!-- LineAnimator -->
<g id="node5" class="node"><title>LineAnimator</title>
<g id="a_node5"><a xlink:href="../../api/sunpy.visualization.imageanimator.LineAnimator.html#sunpy.visualization.imageanimator.LineAnimator" xlink:title="Create a matplotlib backend independent data explorer for 1D plots." target="_top">
<polygon fill="none" stroke="black" stroke-width="0.5" points="352,-18.5 272,-18.5 272,0.5 352,0.5 352,-18.5"/>
<text text-anchor="middle" x="312" y="-6.5" font-family="Vera Sans, DejaVu Sans, Liberation Sans, Arial, Helvetica, sans" font-size="10.00">LineAnimator</text>
</a>
</g>
</g>
<!-- ArrayAnimator&#45;&gt;LineAnimator -->
<g id="edge4" class="edge"><title>ArrayAnimator&#45;&gt;LineAnimator</title>
<path fill="none" stroke="black" stroke-width="0.5" d="M230.33,-20.8054C242.126,-19.0792 254.967,-17.1999 266.865,-15.4588"/>
<polygon fill="black" stroke="black" stroke-width="0.5" points="267.206,-17.1776 271.9,-14.722 266.699,-13.7145 267.206,-17.1776"/>
</g>
<!-- BaseFuncAnimator -->
<g id="node2" class="node"><title>BaseFuncAnimator</title>
<g id="a_node2"><a xlink:href="../../api/sunpy.visualization.imageanimator.BaseFuncAnimator.html#sunpy.visualization.imageanimator.BaseFuncAnimator" xlink:title="Create a matplotlib backend independent data explorer which allows" target="_top">
<polygon fill="none" stroke="black" stroke-width="0.5" points="107.5,-36.5 0.5,-36.5 0.5,-17.5 107.5,-17.5 107.5,-36.5"/>
<text text-anchor="middle" x="54" y="-24.5" font-family="Vera Sans, DejaVu Sans, Liberation Sans, Arial, Helvetica, sans" font-size="10.00">BaseFuncAnimator</text>
</a>
</g>
</g>
<!-- BaseFuncAnimator&#45;&gt;ArrayAnimator -->
<g id="edge1" class="edge"><title>BaseFuncAnimator&#45;&gt;ArrayAnimator</title>
<path fill="none" stroke="black" stroke-width="0.5" d="M107.528,-27C117.833,-27 128.584,-27 138.705,-27"/>
<polygon fill="black" stroke="black" stroke-width="0.5" points="138.934,-28.7501 143.934,-27 138.934,-25.2501 138.934,-28.7501"/>
</g>
<!-- ImageAnimatorWCS -->
<g id="node4" class="node"><title>ImageAnimatorWCS</title>
<g id="a_node4"><a xlink:href="../../api/sunpy.visualization.imageanimator.ImageAnimatorWCS.html#sunpy.visualization.imageanimator.ImageAnimatorWCS" xlink:title="Animates N&#45;dimensional data with the associated astropy WCS object." target="_top">
<polygon fill="none" stroke="black" stroke-width="0.5" points="507.5,-55.5 394.5,-55.5 394.5,-36.5 507.5,-36.5 507.5,-55.5"/>
<text text-anchor="middle" x="451" y="-43.5" font-family="Vera Sans, DejaVu Sans, Liberation Sans, Arial, Helvetica, sans" font-size="10.00">ImageAnimatorWCS</text>
</a>
</g>
</g>
<!-- ImageAnimator&#45;&gt;ImageAnimatorWCS -->
<g id="edge3" class="edge"><title>ImageAnimator&#45;&gt;ImageAnimatorWCS</title>
<path fill="none" stroke="black" stroke-width="0.5" d="M357.859,-46C367.784,-46 378.464,-46 388.912,-46"/>
<polygon fill="black" stroke="black" stroke-width="0.5" points="389.018,-47.7501 394.017,-46 389.017,-44.2501 389.018,-47.7501"/>
</g>
</g>
</svg>
