<?xml version="1.0" encoding="UTF-8" standalone="no"?>
<!DOCTYPE svg PUBLIC "-//W3C//DTD SVG 1.1//EN"
 "http://www.w3.org/Graphics/SVG/1.1/DTD/svg11.dtd">
<!-- Generated by graphviz version 2.36.0 (20140111.2315)
 -->
<!-- Title: inheritancee78f99915d Pages: 1 -->
<svg width="298pt" height="470pt"
 viewBox="0.00 0.00 298.00 470.00" xmlns="http://www.w3.org/2000/svg" xmlns:xlink="http://www.w3.org/1999/xlink">
<g id="graph0" class="graph" transform="scale(1 1) rotate(0) translate(4 466)">
<title>inheritancee78f99915d</title>
<polygon fill="white" stroke="none" points="-4,4 -4,-466 294,-466 294,4 -4,4"/>
<!-- Attr -->
<g id="node1" class="node"><title>Attr</title>
<g id="a_node1"><a xlink:title="This is the base for all attributes.">
<polygon fill="none" stroke="black" stroke-width="0.5" points="54,-92.5 0,-92.5 0,-73.5 54,-73.5 54,-92.5"/>
<text text-anchor="middle" x="27" y="-80.5" font-family="Vera Sans, DejaVu Sans, Liberation Sans, Arial, Helvetica, sans" font-size="10.00">Attr</text>
</a>
</g>
</g>
<!-- _VSOSimpleAttr -->
<g id="node3" class="node"><title>_VSOSimpleAttr</title>
<g id="a_node3"><a xlink:title="A _SimpleAttr is an attribute that is not composite, i.e. that only">
<polygon fill="none" stroke="black" stroke-width="0.5" points="184,-240.5 90,-240.5 90,-221.5 184,-221.5 184,-240.5"/>
<text text-anchor="middle" x="137" y="-228.5" font-family="Vera Sans, DejaVu Sans, Liberation Sans, Arial, Helvetica, sans" font-size="10.00">_VSOSimpleAttr</text>
</a>
</g>
</g>
<!-- Attr&#45;&gt;_VSOSimpleAttr -->
<g id="edge20" class="edge"><title>Attr&#45;&gt;_VSOSimpleAttr</title>
<path fill="none" stroke="black" stroke-width="0.5" d="M34.7559,-92.2581C53.2421,-117.591 104.712,-188.124 126.288,-217.691"/>
<polygon fill="black" stroke="black" stroke-width="0.5" points="124.886,-218.738 129.247,-221.745 127.713,-216.675 124.886,-218.738"/>
</g>
<!-- Extent -->
<g id="node4" class="node"><title>Extent</title>
<g id="a_node4"><a xlink:href="../../api/sunpy.net.vso.attrs.Extent.html#sunpy.net.vso.attrs.Extent" xlink:title="Specify the spatial field&#45;of&#45;view of the query. Due to a bug in the VSO," target="_top">
<polygon fill="none" stroke="black" stroke-width="0.5" points="164,-129.5 110,-129.5 110,-110.5 164,-110.5 164,-129.5"/>
<text text-anchor="middle" x="137" y="-117.5" font-family="Vera Sans, DejaVu Sans, Liberation Sans, Arial, Helvetica, sans" font-size="10.00">Extent</text>
</a>
</g>
</g>
<!-- Attr&#45;&gt;Extent -->
<g id="edge2" class="edge"><title>Attr&#45;&gt;Extent</title>
<path fill="none" stroke="black" stroke-width="0.5" d="M54.1438,-91.9567C69.419,-97.1899 88.7895,-103.826 104.852,-109.329"/>
<polygon fill="black" stroke="black" stroke-width="0.5" points="104.425,-111.033 109.723,-110.998 105.56,-107.721 104.425,-111.033"/>
</g>
<!-- ValueAttr -->
<g id="node6" class="node"><title>ValueAttr</title>
<polygon fill="none" stroke="black" stroke-width="0.5" points="167.5,-92.5 106.5,-92.5 106.5,-73.5 167.5,-73.5 167.5,-92.5"/>
<text text-anchor="middle" x="137" y="-80.5" font-family="Vera Sans, DejaVu Sans, Liberation Sans, Arial, Helvetica, sans" font-size="10.00">ValueAttr</text>
</g>
<!-- Attr&#45;&gt;ValueAttr -->
<g id="edge17" class="edge"><title>Attr&#45;&gt;ValueAttr</title>
<path fill="none" stroke="black" stroke-width="0.5" d="M54.1438,-83C68.2778,-83 85.9179,-83 101.2,-83"/>
<polygon fill="black" stroke="black" stroke-width="0.5" points="101.283,-84.7501 106.283,-83 101.283,-81.2501 101.283,-84.7501"/>
</g>
<!-- Time -->
<g id="node18" class="node"><title>Time</title>
<g id="a_node18"><a xlink:href="../../api/sunpy.net.vso.attrs.Time.html#sunpy.net.vso.attrs.Time" xlink:title="Specify the time range of the query." target="_top">
<polygon fill="none" stroke="black" stroke-width="0.5" points="164,-18.5 110,-18.5 110,0.5 164,0.5 164,-18.5"/>
<text text-anchor="middle" x="137" y="-6.5" font-family="Vera Sans, DejaVu Sans, Liberation Sans, Arial, Helvetica, sans" font-size="10.00">Time</text>
</a>
</g>
</g>
<!-- Attr&#45;&gt;Time -->
<g id="edge15" class="edge"><title>Attr&#45;&gt;Time</title>
<path fill="none" stroke="black" stroke-width="0.5" d="M36.4013,-73.5294C47.606,-61.3736 68.5342,-40.273 90,-27 94.691,-24.0994 99.9281,-21.5202 105.141,-19.2839"/>
<polygon fill="black" stroke="black" stroke-width="0.5" points="105.945,-20.8457 109.905,-17.3273 104.615,-17.6081 105.945,-20.8457"/>
</g>
<!-- Wavelength -->
<g id="node20" class="node"><title>Wavelength</title>
<g id="a_node20"><a xlink:href="../../api/sunpy.net.vso.attrs.Wavelength.html#sunpy.net.vso.attrs.Wavelength" xlink:title="Wavelength" target="_top">
<polygon fill="none" stroke="black" stroke-width="0.5" points="172.5,-55.5 101.5,-55.5 101.5,-36.5 172.5,-36.5 172.5,-55.5"/>
<text text-anchor="middle" x="137" y="-43.5" font-family="Vera Sans, DejaVu Sans, Liberation Sans, Arial, Helvetica, sans" font-size="10.00">Wavelength</text>
</a>
</g>
</g>
<!-- Attr&#45;&gt;Wavelength -->
<g id="edge18" class="edge"><title>Attr&#45;&gt;Wavelength</title>
<path fill="none" stroke="black" stroke-width="0.5" d="M54.1438,-74.0433C69.1927,-68.8877 88.2164,-62.3703 104.136,-56.9164"/>
<polygon fill="black" stroke="black" stroke-width="0.5" points="104.806,-58.5367 108.969,-55.2606 103.672,-55.2256 104.806,-58.5367"/>
</g>
<!-- Detector -->
<g id="node2" class="node"><title>Detector</title>
<g id="a_node2"><a xlink:href="../../api/sunpy.net.vso.attrs.Detector.html#sunpy.net.vso.attrs.Detector" xlink:title="The detector from which the data comes from." target="_top">
<polygon fill="none" stroke="black" stroke-width="0.5" points="284.5,-388.5 225.5,-388.5 225.5,-369.5 284.5,-369.5 284.5,-388.5"/>
<text text-anchor="middle" x="255" y="-376.5" font-family="Vera Sans, DejaVu Sans, Liberation Sans, Arial, Helvetica, sans" font-size="10.00">Detector</text>
</a>
</g>
</g>
<!-- _VSOSimpleAttr&#45;&gt;Detector -->
<g id="edge1" class="edge"><title>_VSOSimpleAttr&#45;&gt;Detector</title>
<path fill="none" stroke="black" stroke-width="0.5" d="M142.054,-240.541C152.225,-263.565 180.844,-323.001 220,-360 222.703,-362.554 225.814,-364.888 229.033,-366.978"/>
<polygon fill="black" stroke="black" stroke-width="0.5" points="228.28,-368.569 233.461,-369.675 230.101,-365.579 228.28,-368.569"/>
</g>
<!-- Filter -->
<g id="node7" class="node"><title>Filter</title>
<g id="a_node7"><a xlink:href="../../api/sunpy.net.vso.attrs.Filter.html#sunpy.net.vso.attrs.Filter" xlink:title="This attribute is a placeholder for the future." target="_top">
<polygon fill="none" stroke="black" stroke-width="0.5" points="282,-351.5 228,-351.5 228,-332.5 282,-332.5 282,-351.5"/>
<text text-anchor="middle" x="255" y="-339.5" font-family="Vera Sans, DejaVu Sans, Liberation Sans, Arial, Helvetica, sans" font-size="10.00">Filter</text>
</a>
</g>
</g>
<!-- _VSOSimpleAttr&#45;&gt;Filter -->
<g id="edge4" class="edge"><title>_VSOSimpleAttr&#45;&gt;Filter</title>
<path fill="none" stroke="black" stroke-width="0.5" d="M144.602,-240.277C157.541,-257.99 187.793,-297.157 220,-323 223.046,-325.444 226.448,-327.752 229.89,-329.861"/>
<polygon fill="black" stroke="black" stroke-width="0.5" points="229.38,-331.591 234.579,-332.609 231.15,-328.571 229.38,-331.591"/>
</g>
<!-- Instrument -->
<g id="node8" class="node"><title>Instrument</title>
<g id="a_node8"><a xlink:href="../../api/sunpy.net.vso.attrs.Instrument.html#sunpy.net.vso.attrs.Instrument" xlink:title="Specifies the Instrument name for the search." target="_top">
<polygon fill="none" stroke="black" stroke-width="0.5" points="289.5,-314.5 220.5,-314.5 220.5,-295.5 289.5,-295.5 289.5,-314.5"/>
<text text-anchor="middle" x="255" y="-302.5" font-family="Vera Sans, DejaVu Sans, Liberation Sans, Arial, Helvetica, sans" font-size="10.00">Instrument</text>
</a>
</g>
</g>
<!-- _VSOSimpleAttr&#45;&gt;Instrument -->
<g id="edge5" class="edge"><title>_VSOSimpleAttr&#45;&gt;Instrument</title>
<path fill="none" stroke="black" stroke-width="0.5" d="M151.134,-240.292C167.15,-251.509 195.16,-270.763 220,-286 223.894,-288.389 228.101,-290.84 232.185,-293.154"/>
<polygon fill="black" stroke="black" stroke-width="0.5" points="231.329,-294.681 236.546,-295.603 233.043,-291.629 231.329,-294.681"/>
</g>
<!-- Level -->
<g id="node9" class="node"><title>Level</title>
<g id="a_node9"><a xlink:href="../../api/sunpy.net.vso.attrs.Level.html#sunpy.net.vso.attrs.Level" xlink:title="Specifies the data processing level to search for. &#160;The data processing" target="_top">
<polygon fill="none" stroke="black" stroke-width="0.5" points="282,-277.5 228,-277.5 228,-258.5 282,-258.5 282,-277.5"/>
<text text-anchor="middle" x="255" y="-265.5" font-family="Vera Sans, DejaVu Sans, Liberation Sans, Arial, Helvetica, sans" font-size="10.00">Level</text>
</a>
</g>
</g>
<!-- _VSOSimpleAttr&#45;&gt;Level -->
<g id="edge6" class="edge"><title>_VSOSimpleAttr&#45;&gt;Level</title>
<path fill="none" stroke="black" stroke-width="0.5" d="M167.272,-240.337C184.327,-245.777 205.816,-252.631 223.136,-258.156"/>
<polygon fill="black" stroke="black" stroke-width="0.5" points="222.609,-259.824 227.904,-259.676 223.672,-256.49 222.609,-259.824"/>
</g>
<!-- PScale -->
<g id="node10" class="node"><title>PScale</title>
<g id="a_node10"><a xlink:href="../../api/sunpy.net.vso.attrs.PScale.html#sunpy.net.vso.attrs.PScale" xlink:title="Pixel Scale (PSCALE) is in arc seconds." target="_top">
<polygon fill="none" stroke="black" stroke-width="0.5" points="282,-240.5 228,-240.5 228,-221.5 282,-221.5 282,-240.5"/>
<text text-anchor="middle" x="255" y="-228.5" font-family="Vera Sans, DejaVu Sans, Liberation Sans, Arial, Helvetica, sans" font-size="10.00">PScale</text>
</a>
</g>
</g>
<!-- _VSOSimpleAttr&#45;&gt;PScale -->
<g id="edge7" class="edge"><title>_VSOSimpleAttr&#45;&gt;PScale</title>
<path fill="none" stroke="black" stroke-width="0.5" d="M184.18,-231C197,-231 210.626,-231 222.404,-231"/>
<polygon fill="black" stroke="black" stroke-width="0.5" points="222.677,-232.75 227.677,-231 222.677,-229.25 222.677,-232.75"/>
</g>
<!-- Physobs -->
<g id="node11" class="node"><title>Physobs</title>
<g id="a_node11"><a xlink:href="../../api/sunpy.net.vso.attrs.Physobs.html#sunpy.net.vso.attrs.Physobs" xlink:title="Specifies the physical observable the VSO can search for." target="_top">
<polygon fill="none" stroke="black" stroke-width="0.5" points="283,-203.5 227,-203.5 227,-184.5 283,-184.5 283,-203.5"/>
<text text-anchor="middle" x="255" y="-191.5" font-family="Vera Sans, DejaVu Sans, Liberation Sans, Arial, Helvetica, sans" font-size="10.00">Physobs</text>
</a>
</g>
</g>
<!-- _VSOSimpleAttr&#45;&gt;Physobs -->
<g id="edge8" class="edge"><title>_VSOSimpleAttr&#45;&gt;Physobs</title>
<path fill="none" stroke="black" stroke-width="0.5" d="M167.272,-221.663C183.816,-216.386 204.533,-209.778 221.569,-204.344"/>
<polygon fill="black" stroke="black" stroke-width="0.5" points="222.498,-205.885 226.73,-202.698 221.434,-202.55 222.498,-205.885"/>
</g>
<!-- Pixels -->
<g id="node12" class="node"><title>Pixels</title>
<g id="a_node12"><a xlink:href="../../api/sunpy.net.vso.attrs.Pixels.html#sunpy.net.vso.attrs.Pixels" xlink:title="Pixels are (currently) limited to a single dimension (and only implemented" target="_top">
<polygon fill="none" stroke="black" stroke-width="0.5" points="282,-166.5 228,-166.5 228,-147.5 282,-147.5 282,-166.5"/>
<text text-anchor="middle" x="255" y="-154.5" font-family="Vera Sans, DejaVu Sans, Liberation Sans, Arial, Helvetica, sans" font-size="10.00">Pixels</text>
</a>
</g>
</g>
<!-- _VSOSimpleAttr&#45;&gt;Pixels -->
<g id="edge9" class="edge"><title>_VSOSimpleAttr&#45;&gt;Pixels</title>
<path fill="none" stroke="black" stroke-width="0.5" d="M151.134,-221.708C167.15,-210.491 195.16,-191.237 220,-176 223.894,-173.611 228.101,-171.16 232.185,-168.846"/>
<polygon fill="black" stroke="black" stroke-width="0.5" points="233.043,-170.371 236.546,-166.397 231.329,-167.319 233.043,-170.371"/>
</g>
<!-- Provider -->
<g id="node13" class="node"><title>Provider</title>
<g id="a_node13"><a xlink:href="../../api/sunpy.net.vso.attrs.Provider.html#sunpy.net.vso.attrs.Provider" xlink:title="Specifies the VSO data provider to search for data for." target="_top">
<polygon fill="none" stroke="black" stroke-width="0.5" points="283,-129.5 227,-129.5 227,-110.5 283,-110.5 283,-129.5"/>
<text text-anchor="middle" x="255" y="-117.5" font-family="Vera Sans, DejaVu Sans, Liberation Sans, Arial, Helvetica, sans" font-size="10.00">Provider</text>
</a>
</g>
</g>
<!-- _VSOSimpleAttr&#45;&gt;Provider -->
<g id="edge10" class="edge"><title>_VSOSimpleAttr&#45;&gt;Provider</title>
<path fill="none" stroke="black" stroke-width="0.5" d="M144.602,-221.723C157.541,-204.01 187.793,-164.843 220,-139 223.046,-136.556 226.448,-134.248 229.89,-132.139"/>
<polygon fill="black" stroke="black" stroke-width="0.5" points="231.15,-133.429 234.579,-129.391 229.38,-130.409 231.15,-133.429"/>
</g>
<!-- Quicklook -->
<g id="node14" class="node"><title>Quicklook</title>
<g id="a_node14"><a xlink:href="../../api/sunpy.net.vso.attrs.Quicklook.html#sunpy.net.vso.attrs.Quicklook" xlink:title="Retrieve &#39;quicklook&#39; data if available." target="_top">
<polygon fill="none" stroke="black" stroke-width="0.5" points="286,-92.5 224,-92.5 224,-73.5 286,-73.5 286,-92.5"/>
<text text-anchor="middle" x="255" y="-80.5" font-family="Vera Sans, DejaVu Sans, Liberation Sans, Arial, Helvetica, sans" font-size="10.00">Quicklook</text>
</a>
</g>
</g>
<!-- _VSOSimpleAttr&#45;&gt;Quicklook -->
<g id="edge11" class="edge"><title>_VSOSimpleAttr&#45;&gt;Quicklook</title>
<path fill="none" stroke="black" stroke-width="0.5" d="M142.054,-221.459C152.225,-198.435 180.844,-138.999 220,-102 222.703,-99.4457 225.814,-97.112 229.033,-95.022"/>
<polygon fill="black" stroke="black" stroke-width="0.5" points="230.101,-96.4206 233.461,-92.3251 228.28,-93.4314 230.101,-96.4206"/>
</g>
<!-- Resolution -->
<g id="node15" class="node"><title>Resolution</title>
<g id="a_node15"><a xlink:href="../../api/sunpy.net.vso.attrs.Resolution.html#sunpy.net.vso.attrs.Resolution" xlink:title="Resolution level of the data." target="_top">
<polygon fill="none" stroke="black" stroke-width="0.5" points="287.5,-55.5 222.5,-55.5 222.5,-36.5 287.5,-36.5 287.5,-55.5"/>
<text text-anchor="middle" x="255" y="-43.5" font-family="Vera Sans, DejaVu Sans, Liberation Sans, Arial, Helvetica, sans" font-size="10.00">Resolution</text>
</a>
</g>
</g>
<!-- _VSOSimpleAttr&#45;&gt;Resolution -->
<g id="edge12" class="edge"><title>_VSOSimpleAttr&#45;&gt;Resolution</title>
<path fill="none" stroke="black" stroke-width="0.5" d="M142.705,-221.496C151.036,-204.668 168.924,-168.525 184,-138 200.019,-105.565 195.087,-91.2291 220,-65 222.323,-62.5547 225.031,-60.3411 227.886,-58.3616"/>
<polygon fill="black" stroke="black" stroke-width="0.5" points="229.185,-59.6085 232.46,-55.4442 227.303,-56.6577 229.185,-59.6085"/>
</g>
<!-- Sample -->
<g id="node16" class="node"><title>Sample</title>
<g id="a_node16"><a xlink:href="../../api/sunpy.net.vso.attrs.Sample.html#sunpy.net.vso.attrs.Sample" xlink:title="Time interval for data sampling." target="_top">
<polygon fill="none" stroke="black" stroke-width="0.5" points="282,-462.5 228,-462.5 228,-443.5 282,-443.5 282,-462.5"/>
<text text-anchor="middle" x="255" y="-450.5" font-family="Vera Sans, DejaVu Sans, Liberation Sans, Arial, Helvetica, sans" font-size="10.00">Sample</text>
</a>
</g>
</g>
<!-- _VSOSimpleAttr&#45;&gt;Sample -->
<g id="edge13" class="edge"><title>_VSOSimpleAttr&#45;&gt;Sample</title>
<path fill="none" stroke="black" stroke-width="0.5" d="M139.554,-240.672C145.049,-272.125 166.209,-372.985 220,-434 222.23,-436.53 224.882,-438.795 227.706,-440.803"/>
<polygon fill="black" stroke="black" stroke-width="0.5" points="227.103,-442.497 232.251,-443.747 229.006,-439.56 227.103,-442.497"/>
</g>
<!-- Source -->
<g id="node17" class="node"><title>Source</title>
<g id="a_node17"><a xlink:href="../../api/sunpy.net.vso.attrs.Source.html#sunpy.net.vso.attrs.Source" xlink:title="Data sources that VSO can search on." target="_top">
<polygon fill="none" stroke="black" stroke-width="0.5" points="282,-425.5 228,-425.5 228,-406.5 282,-406.5 282,-425.5"/>
<text text-anchor="middle" x="255" y="-413.5" font-family="Vera Sans, DejaVu Sans, Liberation Sans, Arial, Helvetica, sans" font-size="10.00">Source</text>
</a>
</g>
</g>
<!-- _VSOSimpleAttr&#45;&gt;Source -->
<g id="edge14" class="edge"><title>_VSOSimpleAttr&#45;&gt;Source</title>
<path fill="none" stroke="black" stroke-width="0.5" d="M140.487,-240.414C148.109,-267.713 173.496,-348.073 220,-397 222.323,-399.444 225.032,-401.658 227.888,-403.637"/>
<polygon fill="black" stroke="black" stroke-width="0.5" points="227.305,-405.341 232.462,-406.554 229.187,-402.39 227.305,-405.341"/>
</g>
<!-- Field -->
<g id="node5" class="node"><title>Field</title>
<g id="a_node5"><a xlink:href="../../api/sunpy.net.vso.attrs.Field.html#sunpy.net.vso.attrs.Field" xlink:title="A subclass of the value attribute. &#160;Used in defining a decorator for the" target="_top">
<polygon fill="none" stroke="black" stroke-width="0.5" points="282,-18.5 228,-18.5 228,0.5 282,0.5 282,-18.5"/>
<text text-anchor="middle" x="255" y="-6.5" font-family="Vera Sans, DejaVu Sans, Liberation Sans, Arial, Helvetica, sans" font-size="10.00">Field</text>
</a>
</g>
</g>
<!-- ValueAttr&#45;&gt;Field -->
<g id="edge3" class="edge"><title>ValueAttr&#45;&gt;Field</title>
<path fill="none" stroke="black" stroke-width="0.5" d="M165.698,-73.6989C171.97,-71.0202 178.42,-67.7798 184,-64 202.996,-51.1322 201.638,-40.7571 220,-27 222.94,-24.7974 226.186,-22.7104 229.471,-20.791"/>
<polygon fill="black" stroke="black" stroke-width="0.5" points="230.442,-22.2528 233.949,-18.2824 228.732,-19.1992 230.442,-22.2528"/>
</g>
<!-- _Range -->
<g id="node19" class="node"><title>_Range</title>
<polygon fill="none" stroke="black" stroke-width="0.5" points="54,-37.5 0,-37.5 0,-18.5 54,-18.5 54,-37.5"/>
<text text-anchor="middle" x="27" y="-25.5" font-family="Vera Sans, DejaVu Sans, Liberation Sans, Arial, Helvetica, sans" font-size="10.00">_Range</text>
</g>
<!-- _Range&#45;&gt;Time -->
<g id="edge16" class="edge"><title>_Range&#45;&gt;Time</title>
<path fill="none" stroke="black" stroke-width="0.5" d="M54.1438,-23.4006C69.2873,-20.7365 88.4558,-17.3643 104.436,-14.5529"/>
<polygon fill="black" stroke="black" stroke-width="0.5" points="105.102,-16.2128 109.723,-13.6229 104.495,-12.7657 105.102,-16.2128"/>
</g>
<!-- _Range&#45;&gt;Wavelength -->
<g id="edge19" class="edge"><title>_Range&#45;&gt;Wavelength</title>
<path fill="none" stroke="black" stroke-width="0.5" d="M54.1438,-32.3573C66.7093,-34.4515 82.0459,-37.0077 96.0329,-39.3388"/>
<polygon fill="black" stroke="black" stroke-width="0.5" points="95.8976,-41.0903 101.117,-40.1862 96.473,-37.6379 95.8976,-41.0903"/>
</g>
</g>
</svg>
