<?xml version="1.0" encoding="UTF-8" standalone="no"?>
<!DOCTYPE svg PUBLIC "-//W3C//DTD SVG 1.1//EN"
 "http://www.w3.org/Graphics/SVG/1.1/DTD/svg11.dtd">
<!-- Generated by graphviz version 2.36.0 (20140111.2315)
 -->
<!-- Title: inheritance01c8913c72 Pages: 1 -->
<svg width="552pt" height="174pt"
 viewBox="0.00 0.00 552.00 174.00" xmlns="http://www.w3.org/2000/svg" xmlns:xlink="http://www.w3.org/1999/xlink">
<g id="graph0" class="graph" transform="scale(1 1) rotate(0) translate(4 170)">
<title>inheritance01c8913c72</title>
<polygon fill="white" stroke="none" points="-4,4 -4,-170 548,-170 548,4 -4,4"/>
<!-- BasicRegistrationFactory -->
<g id="node1" class="node"><title>BasicRegistrationFactory</title>
<g id="a_node1"><a xlink:href="../../api/sunpy.util.datatype_factory_base.BasicRegistrationFactory.html#sunpy.util.datatype_factory_base.BasicRegistrationFactory" xlink:title="Generalized registerable factory type." target="_top">
<polygon fill="none" stroke="black" stroke-width="0.5" points="133.5,-18.5 0.5,-18.5 0.5,0.5 133.5,0.5 133.5,-18.5"/>
<text text-anchor="middle" x="67" y="-6.5" font-family="Vera Sans, DejaVu Sans, Liberation Sans, Arial, Helvetica, sans" font-size="10.00">BasicRegistrationFactory</text>
</a>
</g>
</g>
<!-- UnifiedDownloaderFactory -->
<g id="node9" class="node"><title>UnifiedDownloaderFactory</title>
<g id="a_node9"><a xlink:href="../../api/sunpy.net.fido_factory.UnifiedDownloaderFactory.html#sunpy.net.fido_factory.UnifiedDownloaderFactory" xlink:title="sunpy.net.Fido(\*args, \*\*kwargs)" target="_top">
<polygon fill="none" stroke="black" stroke-width="0.5" points="310,-18.5 170,-18.5 170,0.5 310,0.5 310,-18.5"/>
<text text-anchor="middle" x="240" y="-6.5" font-family="Vera Sans, DejaVu Sans, Liberation Sans, Arial, Helvetica, sans" font-size="10.00">UnifiedDownloaderFactory</text>
</a>
</g>
</g>
<!-- BasicRegistrationFactory&#45;&gt;UnifiedDownloaderFactory -->
<g id="edge7" class="edge"><title>BasicRegistrationFactory&#45;&gt;UnifiedDownloaderFactory</title>
<path fill="none" stroke="black" stroke-width="0.5" d="M133.624,-9C143.823,-9 154.42,-9 164.793,-9"/>
<polygon fill="black" stroke="black" stroke-width="0.5" points="164.864,-10.7501 169.864,-9 164.864,-7.2501 164.864,-10.7501"/>
</g>
<!-- Collection -->
<g id="node2" class="node"><title>Collection</title>
<polygon fill="none" stroke="black" stroke-width="0.5" points="271.5,-92.5 208.5,-92.5 208.5,-73.5 271.5,-73.5 271.5,-92.5"/>
<text text-anchor="middle" x="240" y="-80.5" font-family="Vera Sans, DejaVu Sans, Liberation Sans, Arial, Helvetica, sans" font-size="10.00">Collection</text>
</g>
<!-- Sequence -->
<g id="node8" class="node"><title>Sequence</title>
<g id="a_node8"><a xlink:title="All the operations on a read&#45;only sequence.">
<polygon fill="none" stroke="black" stroke-width="0.5" points="411.5,-73.5 346.5,-73.5 346.5,-54.5 411.5,-54.5 411.5,-73.5"/>
<text text-anchor="middle" x="379" y="-61.5" font-family="Vera Sans, DejaVu Sans, Liberation Sans, Arial, Helvetica, sans" font-size="10.00">Sequence</text>
</a>
</g>
</g>
<!-- Collection&#45;&gt;Sequence -->
<g id="edge6" class="edge"><title>Collection&#45;&gt;Sequence</title>
<path fill="none" stroke="black" stroke-width="0.5" d="M271.745,-78.736C292.342,-75.8796 319.56,-72.1048 341.292,-69.0909"/>
<polygon fill="black" stroke="black" stroke-width="0.5" points="341.695,-70.8019 346.407,-68.3815 341.214,-67.3351 341.695,-70.8019"/>
</g>
<!-- Sized -->
<g id="node3" class="node"><title>Sized</title>
<polygon fill="none" stroke="black" stroke-width="0.5" points="94,-129.5 40,-129.5 40,-110.5 94,-110.5 94,-129.5"/>
<text text-anchor="middle" x="67" y="-117.5" font-family="Vera Sans, DejaVu Sans, Liberation Sans, Arial, Helvetica, sans" font-size="10.00">Sized</text>
</g>
<!-- Sized&#45;&gt;Collection -->
<g id="edge1" class="edge"><title>Sized&#45;&gt;Collection</title>
<path fill="none" stroke="black" stroke-width="0.5" d="M94.344,-114.3C123.512,-107.989 170.697,-97.779 203.201,-90.746"/>
<polygon fill="black" stroke="black" stroke-width="0.5" points="203.77,-92.4135 208.287,-89.6456 203.03,-88.9926 203.77,-92.4135"/>
</g>
<!-- Iterable -->
<g id="node4" class="node"><title>Iterable</title>
<polygon fill="none" stroke="black" stroke-width="0.5" points="94,-55.5 40,-55.5 40,-36.5 94,-36.5 94,-55.5"/>
<text text-anchor="middle" x="67" y="-43.5" font-family="Vera Sans, DejaVu Sans, Liberation Sans, Arial, Helvetica, sans" font-size="10.00">Iterable</text>
</g>
<!-- Iterable&#45;&gt;Collection -->
<g id="edge2" class="edge"><title>Iterable&#45;&gt;Collection</title>
<path fill="none" stroke="black" stroke-width="0.5" d="M94.344,-51.7002C123.512,-58.0114 170.697,-68.221 203.201,-75.254"/>
<polygon fill="black" stroke="black" stroke-width="0.5" points="203.03,-77.0074 208.287,-76.3544 203.77,-73.5865 203.03,-77.0074"/>
</g>
<!-- Reversible -->
<g id="node7" class="node"><title>Reversible</title>
<polygon fill="none" stroke="black" stroke-width="0.5" points="272.5,-55.5 207.5,-55.5 207.5,-36.5 272.5,-36.5 272.5,-55.5"/>
<text text-anchor="middle" x="240" y="-43.5" font-family="Vera Sans, DejaVu Sans, Liberation Sans, Arial, Helvetica, sans" font-size="10.00">Reversible</text>
</g>
<!-- Iterable&#45;&gt;Reversible -->
<g id="edge4" class="edge"><title>Iterable&#45;&gt;Reversible</title>
<path fill="none" stroke="black" stroke-width="0.5" d="M94.344,-46C123.246,-46 169.835,-46 202.306,-46"/>
<polygon fill="black" stroke="black" stroke-width="0.5" points="202.391,-47.7501 207.391,-46 202.391,-44.2501 202.391,-47.7501"/>
</g>
<!-- Container -->
<g id="node5" class="node"><title>Container</title>
<polygon fill="none" stroke="black" stroke-width="0.5" points="98.5,-92.5 35.5,-92.5 35.5,-73.5 98.5,-73.5 98.5,-92.5"/>
<text text-anchor="middle" x="67" y="-80.5" font-family="Vera Sans, DejaVu Sans, Liberation Sans, Arial, Helvetica, sans" font-size="10.00">Container</text>
</g>
<!-- Container&#45;&gt;Collection -->
<g id="edge3" class="edge"><title>Container&#45;&gt;Collection</title>
<path fill="none" stroke="black" stroke-width="0.5" d="M98.5714,-83C127.904,-83 172.193,-83 203.169,-83"/>
<polygon fill="black" stroke="black" stroke-width="0.5" points="203.406,-84.7501 208.406,-83 203.405,-81.2501 203.406,-84.7501"/>
</g>
<!-- DownloadResponse -->
<g id="node6" class="node"><title>DownloadResponse</title>
<g id="a_node6"><a xlink:href="../../api/sunpy.net.fido_factory.DownloadResponse.html#sunpy.net.fido_factory.DownloadResponse" xlink:title="Object returned by clients servicing the query." target="_top">
<polygon fill="none" stroke="black" stroke-width="0.5" points="121.5,-166.5 12.5,-166.5 12.5,-147.5 121.5,-147.5 121.5,-166.5"/>
<text text-anchor="middle" x="67" y="-154.5" font-family="Vera Sans, DejaVu Sans, Liberation Sans, Arial, Helvetica, sans" font-size="10.00">DownloadResponse</text>
</a>
</g>
</g>
<!-- Reversible&#45;&gt;Sequence -->
<g id="edge5" class="edge"><title>Reversible&#45;&gt;Sequence</title>
<path fill="none" stroke="black" stroke-width="0.5" d="M272.775,-50.1748C293.265,-52.8669 319.979,-56.3768 341.363,-59.1864"/>
<polygon fill="black" stroke="black" stroke-width="0.5" points="341.212,-60.9315 346.397,-59.8478 341.668,-57.4613 341.212,-60.9315"/>
</g>
<!-- UnifiedResponse -->
<g id="node10" class="node"><title>UnifiedResponse</title>
<g id="a_node10"><a xlink:href="../../api/sunpy.net.fido_factory.UnifiedResponse.html#sunpy.net.fido_factory.UnifiedResponse" xlink:title="The object used to store results from `~sunpy.net.UnifiedDownloaderFactory.search`." target="_top">
<polygon fill="none" stroke="black" stroke-width="0.5" points="543.5,-73.5 448.5,-73.5 448.5,-54.5 543.5,-54.5 543.5,-73.5"/>
<text text-anchor="middle" x="496" y="-61.5" font-family="Vera Sans, DejaVu Sans, Liberation Sans, Arial, Helvetica, sans" font-size="10.00">UnifiedResponse</text>
</a>
</g>
</g>
<!-- Sequence&#45;&gt;UnifiedResponse -->
<g id="edge8" class="edge"><title>Sequence&#45;&gt;UnifiedResponse</title>
<path fill="none" stroke="black" stroke-width="0.5" d="M411.729,-64C421.441,-64 432.391,-64 443.081,-64"/>
<polygon fill="black" stroke="black" stroke-width="0.5" points="443.302,-65.7501 448.302,-64 443.301,-62.2501 443.302,-65.7501"/>
</g>
</g>
</svg>
