<?xml version="1.0" encoding="UTF-8" standalone="no"?>
<!DOCTYPE svg PUBLIC "-//W3C//DTD SVG 1.1//EN"
 "http://www.w3.org/Graphics/SVG/1.1/DTD/svg11.dtd">
<!-- Generated by graphviz version 2.36.0 (20140111.2315)
 -->
<!-- Title: inheritance2648e744cc Pages: 1 -->
<svg width="326pt" height="285pt"
 viewBox="0.00 0.00 326.00 285.00" xmlns="http://www.w3.org/2000/svg" xmlns:xlink="http://www.w3.org/1999/xlink">
<g id="graph0" class="graph" transform="scale(1 1) rotate(0) translate(4 281)">
<title>inheritance2648e744cc</title>
<polygon fill="white" stroke="none" points="-4,4 -4,-281 322,-281 322,4 -4,4"/>
<!-- EVESpWxTimeSeries -->
<g id="node1" class="node"><title>EVESpWxTimeSeries</title>
<g id="a_node1"><a xlink:href="../../api/sunpy.timeseries.EVESpWxTimeSeries.html#sunpy.timeseries.EVESpWxTimeSeries" xlink:title="SDO EVE LightCurve for level 0CS data." target="_top">
<polygon fill="none" stroke="black" stroke-width="0.5" points="293.5,-277.5 178.5,-277.5 178.5,-258.5 293.5,-258.5 293.5,-277.5"/>
<text text-anchor="middle" x="236" y="-265.5" font-family="Vera Sans, DejaVu Sans, Liberation Sans, Arial, Helvetica, sans" font-size="10.00">EVESpWxTimeSeries</text>
</a>
</g>
</g>
<!-- GenericTimeSeries -->
<g id="node2" class="node"><title>GenericTimeSeries</title>
<g id="a_node2"><a xlink:href="../../api/sunpy.timeseries.GenericTimeSeries.html#sunpy.timeseries.GenericTimeSeries" xlink:title="A generic time series object." target="_top">
<polygon fill="none" stroke="black" stroke-width="0.5" points="112.5,-147.5 5.5,-147.5 5.5,-128.5 112.5,-128.5 112.5,-147.5"/>
<text text-anchor="middle" x="59" y="-135.5" font-family="Vera Sans, DejaVu Sans, Liberation Sans, Arial, Helvetica, sans" font-size="10.00">GenericTimeSeries</text>
</a>
</g>
</g>
<!-- GenericTimeSeries&#45;&gt;EVESpWxTimeSeries -->
<g id="edge1" class="edge"><title>GenericTimeSeries&#45;&gt;EVESpWxTimeSeries</title>
<path fill="none" stroke="black" stroke-width="0.5" d="M103.286,-147.343C108.672,-149.837 113.765,-152.997 118,-157 149.911,-187.159 120.82,-220.243 154,-249 159.676,-253.919 166.388,-257.624 173.481,-260.405"/>
<polygon fill="black" stroke="black" stroke-width="0.5" points="173.147,-262.144 178.445,-262.186 174.329,-258.85 173.147,-262.144"/>
</g>
<!-- GBMSummaryTimeSeries -->
<g id="node3" class="node"><title>GBMSummaryTimeSeries</title>
<g id="a_node3"><a xlink:href="../../api/sunpy.timeseries.GBMSummaryTimeSeries.html#sunpy.timeseries.GBMSummaryTimeSeries" xlink:title="Fermi/GBM Summary Lightcurve TimeSeries." target="_top">
<polygon fill="none" stroke="black" stroke-width="0.5" points="306,-240.5 166,-240.5 166,-221.5 306,-221.5 306,-240.5"/>
<text text-anchor="middle" x="236" y="-228.5" font-family="Vera Sans, DejaVu Sans, Liberation Sans, Arial, Helvetica, sans" font-size="10.00">GBMSummaryTimeSeries</text>
</a>
</g>
</g>
<!-- GenericTimeSeries&#45;&gt;GBMSummaryTimeSeries -->
<g id="edge2" class="edge"><title>GenericTimeSeries&#45;&gt;GBMSummaryTimeSeries</title>
<path fill="none" stroke="black" stroke-width="0.5" d="M100.458,-147.312C106.695,-149.829 112.786,-153.004 118,-157 141.189,-174.771 130.067,-195.244 154,-212 158.26,-214.982 162.923,-217.502 167.793,-219.629"/>
<polygon fill="black" stroke="black" stroke-width="0.5" points="167.432,-221.371 172.723,-221.629 168.747,-218.128 167.432,-221.371"/>
</g>
<!-- LYRATimeSeries -->
<g id="node4" class="node"><title>LYRATimeSeries</title>
<g id="a_node4"><a xlink:href="../../api/sunpy.timeseries.LYRATimeSeries.html#sunpy.timeseries.LYRATimeSeries" xlink:title="Proba&#45;2 LYRA Lightcurve TimeSeries." target="_top">
<polygon fill="none" stroke="black" stroke-width="0.5" points="281,-203.5 191,-203.5 191,-184.5 281,-184.5 281,-203.5"/>
<text text-anchor="middle" x="236" y="-191.5" font-family="Vera Sans, DejaVu Sans, Liberation Sans, Arial, Helvetica, sans" font-size="10.00">LYRATimeSeries</text>
</a>
</g>
</g>
<!-- GenericTimeSeries&#45;&gt;LYRATimeSeries -->
<g id="edge3" class="edge"><title>GenericTimeSeries&#45;&gt;LYRATimeSeries</title>
<path fill="none" stroke="black" stroke-width="0.5" d="M91.3102,-147.325C100.045,-150.177 109.474,-153.494 118,-157 134.545,-163.803 137.178,-168.916 154,-175 164.039,-178.631 175.032,-181.749 185.592,-184.347"/>
<polygon fill="black" stroke="black" stroke-width="0.5" points="185.465,-186.116 190.736,-185.581 186.282,-182.713 185.465,-186.116"/>
</g>
<!-- NOAAIndicesTimeSeries -->
<g id="node5" class="node"><title>NOAAIndicesTimeSeries</title>
<g id="a_node5"><a xlink:href="../../api/sunpy.timeseries.NOAAIndicesTimeSeries.html#sunpy.timeseries.NOAAIndicesTimeSeries" xlink:title="NOAA Solar Cycle monthly indices." target="_top">
<polygon fill="none" stroke="black" stroke-width="0.5" points="301.5,-166.5 170.5,-166.5 170.5,-147.5 301.5,-147.5 301.5,-166.5"/>
<text text-anchor="middle" x="236" y="-154.5" font-family="Vera Sans, DejaVu Sans, Liberation Sans, Arial, Helvetica, sans" font-size="10.00">NOAAIndicesTimeSeries</text>
</a>
</g>
</g>
<!-- GenericTimeSeries&#45;&gt;NOAAIndicesTimeSeries -->
<g id="edge4" class="edge"><title>GenericTimeSeries&#45;&gt;NOAAIndicesTimeSeries</title>
<path fill="none" stroke="black" stroke-width="0.5" d="M112.506,-143.701C129.02,-145.494 147.526,-147.503 165.052,-149.406"/>
<polygon fill="black" stroke="black" stroke-width="0.5" points="165.296,-151.192 170.456,-149.992 165.674,-147.713 165.296,-151.192"/>
</g>
<!-- NOAAPredictIndicesTimeSeries -->
<g id="node6" class="node"><title>NOAAPredictIndicesTimeSeries</title>
<g id="a_node6"><a xlink:href="../../api/sunpy.timeseries.NOAAPredictIndicesTimeSeries.html#sunpy.timeseries.NOAAPredictIndicesTimeSeries" xlink:title="NOAA Solar Cycle Predicted Progression" target="_top">
<polygon fill="none" stroke="black" stroke-width="0.5" points="318,-129.5 154,-129.5 154,-110.5 318,-110.5 318,-129.5"/>
<text text-anchor="middle" x="236" y="-117.5" font-family="Vera Sans, DejaVu Sans, Liberation Sans, Arial, Helvetica, sans" font-size="10.00">NOAAPredictIndicesTimeSeries</text>
</a>
</g>
</g>
<!-- GenericTimeSeries&#45;&gt;NOAAPredictIndicesTimeSeries -->
<g id="edge5" class="edge"><title>GenericTimeSeries&#45;&gt;NOAAPredictIndicesTimeSeries</title>
<path fill="none" stroke="black" stroke-width="0.5" d="M112.506,-132.599C123.87,-131.431 136.177,-130.165 148.459,-128.901"/>
<polygon fill="black" stroke="black" stroke-width="0.5" points="148.923,-130.613 153.718,-128.36 148.565,-127.131 148.923,-130.613"/>
</g>
<!-- NoRHTimeSeries -->
<g id="node7" class="node"><title>NoRHTimeSeries</title>
<g id="a_node7"><a xlink:href="../../api/sunpy.timeseries.NoRHTimeSeries.html#sunpy.timeseries.NoRHTimeSeries" xlink:title="Nobeyama Radioheliograph Correlation Lightcurve TimeSeries." target="_top">
<polygon fill="none" stroke="black" stroke-width="0.5" points="284.5,-92.5 187.5,-92.5 187.5,-73.5 284.5,-73.5 284.5,-92.5"/>
<text text-anchor="middle" x="236" y="-80.5" font-family="Vera Sans, DejaVu Sans, Liberation Sans, Arial, Helvetica, sans" font-size="10.00">NoRHTimeSeries</text>
</a>
</g>
</g>
<!-- GenericTimeSeries&#45;&gt;NoRHTimeSeries -->
<g id="edge6" class="edge"><title>GenericTimeSeries&#45;&gt;NoRHTimeSeries</title>
<path fill="none" stroke="black" stroke-width="0.5" d="M81.7381,-128.71C100.604,-120.882 128.776,-109.75 154,-102 164.086,-98.9014 175.011,-96.0241 185.475,-93.4942"/>
<polygon fill="black" stroke="black" stroke-width="0.5" points="186.111,-95.1418 190.569,-92.2807 185.299,-91.737 186.111,-95.1418"/>
</g>
<!-- RHESSISummaryTimeSeries -->
<g id="node8" class="node"><title>RHESSISummaryTimeSeries</title>
<g id="a_node8"><a xlink:href="../../api/sunpy.timeseries.RHESSISummaryTimeSeries.html#sunpy.timeseries.RHESSISummaryTimeSeries" xlink:title="RHESSI X&#45;ray Summary Lightcurve TimeSeries." target="_top">
<polygon fill="none" stroke="black" stroke-width="0.5" points="312,-55.5 160,-55.5 160,-36.5 312,-36.5 312,-55.5"/>
<text text-anchor="middle" x="236" y="-43.5" font-family="Vera Sans, DejaVu Sans, Liberation Sans, Arial, Helvetica, sans" font-size="10.00">RHESSISummaryTimeSeries</text>
</a>
</g>
</g>
<!-- GenericTimeSeries&#45;&gt;RHESSISummaryTimeSeries -->
<g id="edge7" class="edge"><title>GenericTimeSeries&#45;&gt;RHESSISummaryTimeSeries</title>
<path fill="none" stroke="black" stroke-width="0.5" d="M69.2057,-128.577C85.0458,-112.924 119.13,-81.6449 154,-65 160.778,-61.7644 168.145,-59.0594 175.581,-56.8028"/>
<polygon fill="black" stroke="black" stroke-width="0.5" points="176.418,-58.3825 180.734,-55.3112 175.445,-55.0205 176.418,-58.3825"/>
</g>
<!-- XRSTimeSeries -->
<g id="node10" class="node"><title>XRSTimeSeries</title>
<g id="a_node10"><a xlink:href="../../api/sunpy.timeseries.XRSTimeSeries.html#sunpy.timeseries.XRSTimeSeries" xlink:title="GOES XRS Time Series" target="_top">
<polygon fill="none" stroke="black" stroke-width="0.5" points="280.5,-18.5 191.5,-18.5 191.5,0.5 280.5,0.5 280.5,-18.5"/>
<text text-anchor="middle" x="236" y="-6.5" font-family="Vera Sans, DejaVu Sans, Liberation Sans, Arial, Helvetica, sans" font-size="10.00">XRSTimeSeries</text>
</a>
</g>
</g>
<!-- GenericTimeSeries&#45;&gt;XRSTimeSeries -->
<g id="edge8" class="edge"><title>GenericTimeSeries&#45;&gt;XRSTimeSeries</title>
<path fill="none" stroke="black" stroke-width="0.5" d="M65.1807,-128.586C77.5222,-107.097 110.877,-54.2637 154,-28 163.735,-22.071 175.165,-17.9919 186.32,-15.1855"/>
<polygon fill="black" stroke="black" stroke-width="0.5" points="186.954,-16.8342 191.419,-13.9836 186.151,-13.4275 186.954,-16.8342"/>
</g>
<!-- TimeSeriesMetaData -->
<g id="node9" class="node"><title>TimeSeriesMetaData</title>
<g id="a_node9"><a xlink:href="../../api/sunpy.timeseries.TimeSeriesMetaData.html#sunpy.timeseries.TimeSeriesMetaData" xlink:title="An object used to store metadata for TimeSeries objects that enables multiple" target="_top">
<polygon fill="none" stroke="black" stroke-width="0.5" points="117.5,-184.5 0.5,-184.5 0.5,-165.5 117.5,-165.5 117.5,-184.5"/>
<text text-anchor="middle" x="59" y="-172.5" font-family="Vera Sans, DejaVu Sans, Liberation Sans, Arial, Helvetica, sans" font-size="10.00">TimeSeriesMetaData</text>
</a>
</g>
</g>
</g>
</svg>
