<?xml version="1.0" encoding="UTF-8" standalone="no"?>
<!DOCTYPE svg PUBLIC "-//W3C//DTD SVG 1.1//EN"
 "http://www.w3.org/Graphics/SVG/1.1/DTD/svg11.dtd">
<!-- Generated by graphviz version 2.36.0 (20140111.2315)
 -->
<!-- Title: inheritance36b37e20a4 Pages: 1 -->
<svg width="300pt" height="100pt"
 viewBox="0.00 0.00 300.00 100.00" xmlns="http://www.w3.org/2000/svg" xmlns:xlink="http://www.w3.org/1999/xlink">
<g id="graph0" class="graph" transform="scale(1 1) rotate(0) translate(4 96)">
<title>inheritance36b37e20a4</title>
<polygon fill="white" stroke="none" points="-4,4 -4,-96 296,-96 296,4 -4,4"/>
<!-- CompositeMap -->
<g id="node1" class="node"><title>CompositeMap</title>
<g id="a_node1"><a xlink:href="../../api/sunpy.map.CompositeMap.html#sunpy.map.CompositeMap" xlink:title="CompositeMap(map1 [,map2,..])" target="_top">
<polygon fill="none" stroke="black" stroke-width="0.5" points="89.5,-18.5 0.5,-18.5 0.5,0.5 89.5,0.5 89.5,-18.5"/>
<text text-anchor="middle" x="45" y="-6.5" font-family="Vera Sans, DejaVu Sans, Liberation Sans, Arial, Helvetica, sans" font-size="10.00">CompositeMap</text>
</a>
</g>
</g>
<!-- GenericMap -->
<g id="node2" class="node"><title>GenericMap</title>
<g id="a_node2"><a xlink:href="../code_ref/map.html#sunpy.map.mapbase.GenericMap" xlink:title="A Generic spatially&#45;aware 2D data array" target="_top">
<polygon fill="none" stroke="black" stroke-width="0.5" points="292,-55.5 218,-55.5 218,-36.5 292,-36.5 292,-55.5"/>
<text text-anchor="middle" x="255" y="-43.5" font-family="Vera Sans, DejaVu Sans, Liberation Sans, Arial, Helvetica, sans" font-size="10.00">GenericMap</text>
</a>
</g>
</g>
<!-- NDData -->
<g id="node3" class="node"><title>NDData</title>
<g id="a_node3"><a xlink:title="A container for `numpy.ndarray`&#45;based datasets, using the">
<polygon fill="none" stroke="black" stroke-width="0.5" points="181.5,-55.5 126.5,-55.5 126.5,-36.5 181.5,-36.5 181.5,-55.5"/>
<text text-anchor="middle" x="154" y="-43.5" font-family="Vera Sans, DejaVu Sans, Liberation Sans, Arial, Helvetica, sans" font-size="10.00">NDData</text>
</a>
</g>
</g>
<!-- NDData&#45;&gt;GenericMap -->
<g id="edge1" class="edge"><title>NDData&#45;&gt;GenericMap</title>
<path fill="none" stroke="black" stroke-width="0.5" d="M181.53,-46C191.079,-46 202.093,-46 212.606,-46"/>
<polygon fill="black" stroke="black" stroke-width="0.5" points="212.718,-47.7501 217.718,-46 212.718,-44.2501 212.718,-47.7501"/>
</g>
<!-- MapCube -->
<g id="node4" class="node"><title>MapCube</title>
<g id="a_node4"><a xlink:href="../../api/sunpy.map.MapCube.html#sunpy.map.MapCube" xlink:title="MapCube" target="_top">
<polygon fill="none" stroke="black" stroke-width="0.5" points="76,-92.5 14,-92.5 14,-73.5 76,-73.5 76,-92.5"/>
<text text-anchor="middle" x="45" y="-80.5" font-family="Vera Sans, DejaVu Sans, Liberation Sans, Arial, Helvetica, sans" font-size="10.00">MapCube</text>
</a>
</g>
</g>
<!-- NDDataBase -->
<g id="node5" class="node"><title>NDDataBase</title>
<g id="a_node5"><a xlink:title="Base metaclass that defines the interface for N&#45;dimensional datasets">
<polygon fill="none" stroke="black" stroke-width="0.5" points="84.5,-55.5 5.5,-55.5 5.5,-36.5 84.5,-36.5 84.5,-55.5"/>
<text text-anchor="middle" x="45" y="-43.5" font-family="Vera Sans, DejaVu Sans, Liberation Sans, Arial, Helvetica, sans" font-size="10.00">NDDataBase</text>
</a>
</g>
</g>
<!-- NDDataBase&#45;&gt;NDData -->
<g id="edge2" class="edge"><title>NDDataBase&#45;&gt;NDData</title>
<path fill="none" stroke="black" stroke-width="0.5" d="M84.6295,-46C96.6728,-46 109.808,-46 121.318,-46"/>
<polygon fill="black" stroke="black" stroke-width="0.5" points="121.482,-47.7501 126.482,-46 121.482,-44.2501 121.482,-47.7501"/>
</g>
</g>
</svg>
