<?xml version="1.0" encoding="UTF-8" standalone="no"?>
<!DOCTYPE svg PUBLIC "-//W3C//DTD SVG 1.1//EN"
 "http://www.w3.org/Graphics/SVG/1.1/DTD/svg11.dtd">
<!-- Generated by graphviz version 2.36.0 (20140111.2315)
 -->
<!-- Title: inheritanceb081a4e107 Pages: 1 -->
<svg width="398pt" height="544pt"
 viewBox="0.00 0.00 398.00 544.00" xmlns="http://www.w3.org/2000/svg" xmlns:xlink="http://www.w3.org/1999/xlink">
<g id="graph0" class="graph" transform="scale(1 1) rotate(0) translate(4 540)">
<title>inheritanceb081a4e107</title>
<polygon fill="white" stroke="none" points="-4,4 -4,-540 394,-540 394,4 -4,4"/>
<!-- AIAMap -->
<g id="node1" class="node"><title>AIAMap</title>
<g id="a_node1"><a xlink:href="../../api/sunpy.map.sources.AIAMap.html#sunpy.map.sources.AIAMap" xlink:title="AIA Image Map." target="_top">
<polygon fill="none" stroke="black" stroke-width="0.5" points="381,-536.5 327,-536.5 327,-517.5 381,-517.5 381,-536.5"/>
<text text-anchor="middle" x="354" y="-524.5" font-family="Vera Sans, DejaVu Sans, Liberation Sans, Arial, Helvetica, sans" font-size="10.00">AIAMap</text>
</a>
</g>
</g>
<!-- GenericMap -->
<g id="node2" class="node"><title>GenericMap</title>
<g id="a_node2"><a xlink:href="../code_ref/map.html#sunpy.map.mapbase.GenericMap" xlink:title="A Generic spatially&#45;aware 2D data array" target="_top">
<polygon fill="none" stroke="black" stroke-width="0.5" points="282,-277.5 208,-277.5 208,-258.5 282,-258.5 282,-277.5"/>
<text text-anchor="middle" x="245" y="-265.5" font-family="Vera Sans, DejaVu Sans, Liberation Sans, Arial, Helvetica, sans" font-size="10.00">GenericMap</text>
</a>
</g>
</g>
<!-- GenericMap&#45;&gt;AIAMap -->
<g id="edge1" class="edge"><title>GenericMap&#45;&gt;AIAMap</title>
<path fill="none" stroke="black" stroke-width="0.5" d="M246.335,-277.43C248.032,-312.114 258.189,-434.407 318,-508 320.06,-510.535 322.553,-512.782 325.247,-514.76"/>
<polygon fill="black" stroke="black" stroke-width="0.5" points="324.479,-516.35 329.614,-517.65 326.411,-513.432 324.479,-516.35"/>
</g>
<!-- CORMap -->
<g id="node3" class="node"><title>CORMap</title>
<g id="a_node3"><a xlink:href="../../api/sunpy.map.sources.CORMap.html#sunpy.map.sources.CORMap" xlink:title="STEREO&#45;SECCHI CORonograph Image Map." target="_top">
<polygon fill="none" stroke="black" stroke-width="0.5" points="382.5,-499.5 325.5,-499.5 325.5,-480.5 382.5,-480.5 382.5,-499.5"/>
<text text-anchor="middle" x="354" y="-487.5" font-family="Vera Sans, DejaVu Sans, Liberation Sans, Arial, Helvetica, sans" font-size="10.00">CORMap</text>
</a>
</g>
</g>
<!-- GenericMap&#45;&gt;CORMap -->
<g id="edge2" class="edge"><title>GenericMap&#45;&gt;CORMap</title>
<path fill="none" stroke="black" stroke-width="0.5" d="M246.98,-277.687C250.628,-309.184 266.011,-410.165 318,-471 320.181,-473.553 322.795,-475.82 325.597,-477.82"/>
<polygon fill="black" stroke="black" stroke-width="0.5" points="324.973,-479.5 330.123,-480.743 326.872,-476.56 324.973,-479.5"/>
</g>
<!-- EITMap -->
<g id="node4" class="node"><title>EITMap</title>
<g id="a_node4"><a xlink:href="../../api/sunpy.map.sources.EITMap.html#sunpy.map.sources.EITMap" xlink:title="SOHO EIT Image Map." target="_top">
<polygon fill="none" stroke="black" stroke-width="0.5" points="381,-462.5 327,-462.5 327,-443.5 381,-443.5 381,-462.5"/>
<text text-anchor="middle" x="354" y="-450.5" font-family="Vera Sans, DejaVu Sans, Liberation Sans, Arial, Helvetica, sans" font-size="10.00">EITMap</text>
</a>
</g>
</g>
<!-- GenericMap&#45;&gt;EITMap -->
<g id="edge3" class="edge"><title>GenericMap&#45;&gt;EITMap</title>
<path fill="none" stroke="black" stroke-width="0.5" d="M247.824,-277.44C253.541,-304.811 273.453,-385.344 318,-434 320.267,-436.476 322.934,-438.697 325.767,-440.67"/>
<polygon fill="black" stroke="black" stroke-width="0.5" points="325.163,-442.36 330.322,-443.567 327.042,-439.407 325.163,-442.36"/>
</g>
<!-- EUVIMap -->
<g id="node5" class="node"><title>EUVIMap</title>
<g id="a_node5"><a xlink:href="../../api/sunpy.map.sources.EUVIMap.html#sunpy.map.sources.EUVIMap" xlink:title="STEREO&#45;SECCHI EUVI Image Map" target="_top">
<polygon fill="none" stroke="black" stroke-width="0.5" points="383.5,-425.5 324.5,-425.5 324.5,-406.5 383.5,-406.5 383.5,-425.5"/>
<text text-anchor="middle" x="354" y="-413.5" font-family="Vera Sans, DejaVu Sans, Liberation Sans, Arial, Helvetica, sans" font-size="10.00">EUVIMap</text>
</a>
</g>
</g>
<!-- GenericMap&#45;&gt;EUVIMap -->
<g id="edge4" class="edge"><title>GenericMap&#45;&gt;EUVIMap</title>
<path fill="none" stroke="black" stroke-width="0.5" d="M249.099,-277.253C257.161,-300.142 280.786,-360.22 318,-397 320.637,-399.606 323.705,-401.954 326.908,-404.038"/>
<polygon fill="black" stroke="black" stroke-width="0.5" points="326.147,-405.623 331.331,-406.715 327.959,-402.629 326.147,-405.623"/>
</g>
<!-- HIMap -->
<g id="node7" class="node"><title>HIMap</title>
<g id="a_node7"><a xlink:href="../../api/sunpy.map.sources.HIMap.html#sunpy.map.sources.HIMap" xlink:title="STEREO&#45;SECCHI Heliospheric Imager (HI) Map." target="_top">
<polygon fill="none" stroke="black" stroke-width="0.5" points="381,-388.5 327,-388.5 327,-369.5 381,-369.5 381,-388.5"/>
<text text-anchor="middle" x="354" y="-376.5" font-family="Vera Sans, DejaVu Sans, Liberation Sans, Arial, Helvetica, sans" font-size="10.00">HIMap</text>
</a>
</g>
</g>
<!-- GenericMap&#45;&gt;HIMap -->
<g id="edge6" class="edge"><title>GenericMap&#45;&gt;HIMap</title>
<path fill="none" stroke="black" stroke-width="0.5" d="M251.505,-277.38C262.367,-295.268 288.112,-334.721 318,-360 320.976,-362.517 324.339,-364.847 327.773,-366.95"/>
<polygon fill="black" stroke="black" stroke-width="0.5" points="327.268,-368.68 332.472,-369.674 329.024,-365.652 327.268,-368.68"/>
</g>
<!-- HMIMap -->
<g id="node8" class="node"><title>HMIMap</title>
<g id="a_node8"><a xlink:href="../../api/sunpy.map.sources.HMIMap.html#sunpy.map.sources.HMIMap" xlink:title="HMI Image Map." target="_top">
<polygon fill="none" stroke="black" stroke-width="0.5" points="381.5,-351.5 326.5,-351.5 326.5,-332.5 381.5,-332.5 381.5,-351.5"/>
<text text-anchor="middle" x="354" y="-339.5" font-family="Vera Sans, DejaVu Sans, Liberation Sans, Arial, Helvetica, sans" font-size="10.00">HMIMap</text>
</a>
</g>
</g>
<!-- GenericMap&#45;&gt;HMIMap -->
<g id="edge7" class="edge"><title>GenericMap&#45;&gt;HMIMap</title>
<path fill="none" stroke="black" stroke-width="0.5" d="M257.319,-277.528C271.171,-288.978 295.557,-308.461 318,-323 321.835,-325.485 326.023,-327.953 330.126,-330.247"/>
<polygon fill="black" stroke="black" stroke-width="0.5" points="329.299,-331.789 334.524,-332.661 330.983,-328.721 329.299,-331.789"/>
</g>
<!-- LASCOMap -->
<g id="node9" class="node"><title>LASCOMap</title>
<g id="a_node9"><a xlink:href="../../api/sunpy.map.sources.LASCOMap.html#sunpy.map.sources.LASCOMap" xlink:title="SOHO LASCO Image Map" target="_top">
<polygon fill="none" stroke="black" stroke-width="0.5" points="389,-314.5 319,-314.5 319,-295.5 389,-295.5 389,-314.5"/>
<text text-anchor="middle" x="354" y="-302.5" font-family="Vera Sans, DejaVu Sans, Liberation Sans, Arial, Helvetica, sans" font-size="10.00">LASCOMap</text>
</a>
</g>
</g>
<!-- GenericMap&#45;&gt;LASCOMap -->
<g id="edge8" class="edge"><title>GenericMap&#45;&gt;LASCOMap</title>
<path fill="none" stroke="black" stroke-width="0.5" d="M273.001,-277.337C287.574,-282.376 305.656,-288.629 320.941,-293.914"/>
<polygon fill="black" stroke="black" stroke-width="0.5" points="320.711,-295.686 326.008,-295.666 321.854,-292.378 320.711,-295.686"/>
</g>
<!-- MDIMap -->
<g id="node10" class="node"><title>MDIMap</title>
<g id="a_node10"><a xlink:href="../../api/sunpy.map.sources.MDIMap.html#sunpy.map.sources.MDIMap" xlink:title="SOHO MDI Image Map" target="_top">
<polygon fill="none" stroke="black" stroke-width="0.5" points="381.5,-277.5 326.5,-277.5 326.5,-258.5 381.5,-258.5 381.5,-277.5"/>
<text text-anchor="middle" x="354" y="-265.5" font-family="Vera Sans, DejaVu Sans, Liberation Sans, Arial, Helvetica, sans" font-size="10.00">MDIMap</text>
</a>
</g>
</g>
<!-- GenericMap&#45;&gt;MDIMap -->
<g id="edge9" class="edge"><title>GenericMap&#45;&gt;MDIMap</title>
<path fill="none" stroke="black" stroke-width="0.5" d="M282.225,-268C294.851,-268 308.915,-268 321.158,-268"/>
<polygon fill="black" stroke="black" stroke-width="0.5" points="321.284,-269.75 326.284,-268 321.284,-266.25 321.284,-269.75"/>
</g>
<!-- RHESSIMap -->
<g id="node12" class="node"><title>RHESSIMap</title>
<g id="a_node12"><a xlink:href="../../api/sunpy.map.sources.RHESSIMap.html#sunpy.map.sources.RHESSIMap" xlink:title="RHESSI Image Map." target="_top">
<polygon fill="none" stroke="black" stroke-width="0.5" points="390,-240.5 318,-240.5 318,-221.5 390,-221.5 390,-240.5"/>
<text text-anchor="middle" x="354" y="-228.5" font-family="Vera Sans, DejaVu Sans, Liberation Sans, Arial, Helvetica, sans" font-size="10.00">RHESSIMap</text>
</a>
</g>
</g>
<!-- GenericMap&#45;&gt;RHESSIMap -->
<g id="edge11" class="edge"><title>GenericMap&#45;&gt;RHESSIMap</title>
<path fill="none" stroke="black" stroke-width="0.5" d="M273.001,-258.663C287.574,-253.624 305.656,-247.371 320.941,-242.086"/>
<polygon fill="black" stroke="black" stroke-width="0.5" points="321.854,-243.622 326.008,-240.334 320.711,-240.314 321.854,-243.622"/>
</g>
<!-- SJIMap -->
<g id="node13" class="node"><title>SJIMap</title>
<g id="a_node13"><a xlink:href="../../api/sunpy.map.sources.SJIMap.html#sunpy.map.sources.SJIMap" xlink:title="A 2D IRIS Slit Jaw Imager Map." target="_top">
<polygon fill="none" stroke="black" stroke-width="0.5" points="381,-203.5 327,-203.5 327,-184.5 381,-184.5 381,-203.5"/>
<text text-anchor="middle" x="354" y="-191.5" font-family="Vera Sans, DejaVu Sans, Liberation Sans, Arial, Helvetica, sans" font-size="10.00">SJIMap</text>
</a>
</g>
</g>
<!-- GenericMap&#45;&gt;SJIMap -->
<g id="edge12" class="edge"><title>GenericMap&#45;&gt;SJIMap</title>
<path fill="none" stroke="black" stroke-width="0.5" d="M256.753,-258.602C270.43,-246.895 295.04,-226.653 318,-212 321.326,-209.877 324.933,-207.796 328.524,-205.846"/>
<polygon fill="black" stroke="black" stroke-width="0.5" points="329.782,-207.161 333.384,-203.276 328.146,-204.066 329.782,-207.161"/>
</g>
<!-- SOTMap -->
<g id="node14" class="node"><title>SOTMap</title>
<g id="a_node14"><a xlink:href="../../api/sunpy.map.sources.SOTMap.html#sunpy.map.sources.SOTMap" xlink:title="Hinode SOT Image Map definition." target="_top">
<polygon fill="none" stroke="black" stroke-width="0.5" points="382,-166.5 326,-166.5 326,-147.5 382,-147.5 382,-166.5"/>
<text text-anchor="middle" x="354" y="-154.5" font-family="Vera Sans, DejaVu Sans, Liberation Sans, Arial, Helvetica, sans" font-size="10.00">SOTMap</text>
</a>
</g>
</g>
<!-- GenericMap&#45;&gt;SOTMap -->
<g id="edge13" class="edge"><title>GenericMap&#45;&gt;SOTMap</title>
<path fill="none" stroke="black" stroke-width="0.5" d="M251.263,-258.733C261.896,-240.673 287.537,-200.322 318,-175 320.621,-172.822 323.549,-170.809 326.565,-168.98"/>
<polygon fill="black" stroke="black" stroke-width="0.5" points="327.865,-170.253 331.346,-166.259 326.134,-167.211 327.865,-170.253"/>
</g>
<!-- SWAPMap -->
<g id="node15" class="node"><title>SWAPMap</title>
<g id="a_node15"><a xlink:href="../../api/sunpy.map.sources.SWAPMap.html#sunpy.map.sources.SWAPMap" xlink:title="PROBA2 SWAP Image Map." target="_top">
<polygon fill="none" stroke="black" stroke-width="0.5" points="386,-129.5 322,-129.5 322,-110.5 386,-110.5 386,-129.5"/>
<text text-anchor="middle" x="354" y="-117.5" font-family="Vera Sans, DejaVu Sans, Liberation Sans, Arial, Helvetica, sans" font-size="10.00">SWAPMap</text>
</a>
</g>
</g>
<!-- GenericMap&#45;&gt;SWAPMap -->
<g id="edge14" class="edge"><title>GenericMap&#45;&gt;SWAPMap</title>
<path fill="none" stroke="black" stroke-width="0.5" d="M249.028,-258.623C256.929,-235.436 280.216,-174.639 318,-138 320.253,-135.815 322.825,-133.834 325.528,-132.055"/>
<polygon fill="black" stroke="black" stroke-width="0.5" points="326.493,-133.517 329.857,-129.425 324.676,-130.526 326.493,-133.517"/>
</g>
<!-- SXTMap -->
<g id="node16" class="node"><title>SXTMap</title>
<g id="a_node16"><a xlink:href="../../api/sunpy.map.sources.SXTMap.html#sunpy.map.sources.SXTMap" xlink:title="Yohkoh SXT Image Map" target="_top">
<polygon fill="none" stroke="black" stroke-width="0.5" points="381.5,-92.5 326.5,-92.5 326.5,-73.5 381.5,-73.5 381.5,-92.5"/>
<text text-anchor="middle" x="354" y="-80.5" font-family="Vera Sans, DejaVu Sans, Liberation Sans, Arial, Helvetica, sans" font-size="10.00">SXTMap</text>
</a>
</g>
</g>
<!-- GenericMap&#45;&gt;SXTMap -->
<g id="edge15" class="edge"><title>GenericMap&#45;&gt;SXTMap</title>
<path fill="none" stroke="black" stroke-width="0.5" d="M247.754,-258.455C253.284,-230.788 272.736,-149.449 318,-101 319.982,-98.878 322.271,-96.9645 324.71,-95.2487"/>
<polygon fill="black" stroke="black" stroke-width="0.5" points="325.951,-96.5333 329.229,-92.3715 324.071,-93.5811 325.951,-96.5333"/>
</g>
<!-- TRACEMap -->
<g id="node17" class="node"><title>TRACEMap</title>
<g id="a_node17"><a xlink:href="../../api/sunpy.map.sources.TRACEMap.html#sunpy.map.sources.TRACEMap" xlink:title="TRACE Image Map" target="_top">
<polygon fill="none" stroke="black" stroke-width="0.5" points="387.5,-55.5 320.5,-55.5 320.5,-36.5 387.5,-36.5 387.5,-55.5"/>
<text text-anchor="middle" x="354" y="-43.5" font-family="Vera Sans, DejaVu Sans, Liberation Sans, Arial, Helvetica, sans" font-size="10.00">TRACEMap</text>
</a>
</g>
</g>
<!-- GenericMap&#45;&gt;TRACEMap -->
<g id="edge16" class="edge"><title>GenericMap&#45;&gt;TRACEMap</title>
<path fill="none" stroke="black" stroke-width="0.5" d="M246.863,-258.66C250.209,-227.376 264.905,-124.839 318,-64 319.853,-61.8764 322.018,-59.9699 324.346,-58.2655"/>
<polygon fill="black" stroke="black" stroke-width="0.5" points="325.465,-59.6237 328.68,-55.4128 323.541,-56.7001 325.465,-59.6237"/>
</g>
<!-- XRTMap -->
<g id="node18" class="node"><title>XRTMap</title>
<g id="a_node18"><a xlink:href="../../api/sunpy.map.sources.XRTMap.html#sunpy.map.sources.XRTMap" xlink:title="Hinode XRT map definition." target="_top">
<polygon fill="none" stroke="black" stroke-width="0.5" points="381,-18.5 327,-18.5 327,0.5 381,0.5 381,-18.5"/>
<text text-anchor="middle" x="354" y="-6.5" font-family="Vera Sans, DejaVu Sans, Liberation Sans, Arial, Helvetica, sans" font-size="10.00">XRTMap</text>
</a>
</g>
</g>
<!-- GenericMap&#45;&gt;XRTMap -->
<g id="edge17" class="edge"><title>GenericMap&#45;&gt;XRTMap</title>
<path fill="none" stroke="black" stroke-width="0.5" d="M246.268,-258.487C247.733,-223.505 257.181,-100.234 318,-27 319.801,-24.8317 321.93,-22.8948 324.235,-21.171"/>
<polygon fill="black" stroke="black" stroke-width="0.5" points="325.355,-22.5272 328.541,-18.2945 323.411,-19.6169 325.355,-22.5272"/>
</g>
<!-- NDData -->
<g id="node6" class="node"><title>NDData</title>
<g id="a_node6"><a xlink:title="A container for `numpy.ndarray`&#45;based datasets, using the">
<polygon fill="none" stroke="black" stroke-width="0.5" points="171.5,-277.5 116.5,-277.5 116.5,-258.5 171.5,-258.5 171.5,-277.5"/>
<text text-anchor="middle" x="144" y="-265.5" font-family="Vera Sans, DejaVu Sans, Liberation Sans, Arial, Helvetica, sans" font-size="10.00">NDData</text>
</a>
</g>
</g>
<!-- NDData&#45;&gt;GenericMap -->
<g id="edge5" class="edge"><title>NDData&#45;&gt;GenericMap</title>
<path fill="none" stroke="black" stroke-width="0.5" d="M171.53,-268C181.079,-268 192.093,-268 202.606,-268"/>
<polygon fill="black" stroke="black" stroke-width="0.5" points="202.718,-269.75 207.718,-268 202.718,-266.25 202.718,-269.75"/>
</g>
<!-- NDDataBase -->
<g id="node11" class="node"><title>NDDataBase</title>
<g id="a_node11"><a xlink:title="Base metaclass that defines the interface for N&#45;dimensional datasets">
<polygon fill="none" stroke="black" stroke-width="0.5" points="79.5,-277.5 0.5,-277.5 0.5,-258.5 79.5,-258.5 79.5,-277.5"/>
<text text-anchor="middle" x="40" y="-265.5" font-family="Vera Sans, DejaVu Sans, Liberation Sans, Arial, Helvetica, sans" font-size="10.00">NDDataBase</text>
</a>
</g>
</g>
<!-- NDDataBase&#45;&gt;NDData -->
<g id="edge10" class="edge"><title>NDDataBase&#45;&gt;NDData</title>
<path fill="none" stroke="black" stroke-width="0.5" d="M79.5618,-268C90.0348,-268 101.253,-268 111.299,-268"/>
<polygon fill="black" stroke="black" stroke-width="0.5" points="111.436,-269.75 116.436,-268 111.436,-266.25 111.436,-269.75"/>
</g>
</g>
</svg>
